<svg width="134" height="134" viewBox="0 0 134 134" fill="none" xmlns="http://www.w3.org/2000/svg">
<g clip-path="url(#clip0_1052_5176)">
<path d="M95.5137 51.834L96.8087 51.1175L97.287 52.1081L95.9183 52.6718L97.0033 53.6854L96.2096 54.4455L95.2509 53.3161L94.6229 54.6586L93.6559 54.141L94.4297 52.874L92.9586 52.697L93.1523 51.6129L94.5916 51.9632L94.3082 50.5078L95.397 50.3589L95.5137 51.834Z" fill="black"/>
<path d="M34.1348 81.4727L35.4298 80.7562L35.9081 81.7468L34.5394 82.3105L35.6244 83.3241L34.8306 84.0842L33.872 82.9548L33.244 84.2973L32.277 83.7797L33.0508 82.5127L31.5797 82.3357L31.7734 81.2516L33.2127 81.6019L32.9293 80.1465L34.0181 79.9975L34.1348 81.4727Z" fill="black"/>
<path d="M34.4651 60.7539C34.2793 61.5162 33.9653 62.114 33.5232 62.5474C33.0811 62.9808 32.5389 63.244 31.8967 63.3372C31.2493 63.4205 30.5352 63.3221 29.7546 63.0419C29.1709 62.8323 28.6673 62.5607 28.2439 62.2271C27.8134 61.891 27.4709 61.5075 27.2164 61.0767C26.9549 60.6434 26.7911 60.1701 26.725 59.6569C26.6607 59.1364 26.6984 58.5894 26.8382 58.0159C26.9443 57.5803 27.1058 57.1844 27.3227 56.828C27.5413 56.4644 27.7951 56.1765 28.0838 55.9644C28.1895 55.876 28.296 55.8313 28.4033 55.8304C28.5106 55.8294 28.6064 55.8599 28.6908 55.9217C28.7699 55.9738 28.8322 56.0475 28.8778 56.1428C28.9181 56.2284 28.9294 56.3232 28.9117 56.4274C28.8869 56.529 28.8217 56.624 28.716 56.7124C28.4642 56.8983 28.259 57.1286 28.1003 57.4032C27.9363 57.668 27.8128 57.971 27.7296 58.3122C27.5934 58.8712 27.5935 59.3884 27.73 59.8637C27.8613 60.3293 28.1202 60.7419 28.5067 61.1017C28.8879 61.4518 29.3915 61.7391 30.0174 61.9638C30.6362 62.186 31.1911 62.2786 31.6819 62.2416C32.1675 62.1949 32.5732 62.0208 32.899 61.7194C33.2196 61.4081 33.448 60.973 33.5843 60.414C33.6674 60.0728 33.7005 59.7334 33.6833 59.3957C33.668 59.0507 33.5972 58.7134 33.4711 58.3839C33.422 58.24 33.4125 58.1221 33.4425 58.0302C33.4743 57.9311 33.5263 57.859 33.5985 57.8139C33.6637 57.7662 33.7446 57.7479 33.8413 57.7589C33.9328 57.7602 34.0207 57.7918 34.1051 57.8536C34.1894 57.9155 34.2544 58.0098 34.2999 58.1367C34.4735 58.5227 34.5732 58.9454 34.5989 59.4046C34.6194 59.8541 34.5748 60.3038 34.4651 60.7539Z" fill="black"/>
<path d="M37.9272 51.5203C37.5579 52.1698 37.1039 52.6373 36.5652 52.9225C36.0204 53.2035 35.4246 53.3033 34.7778 53.2218C34.1285 53.1296 33.4676 52.8474 32.7949 52.3751C32.2873 52.0188 31.8741 51.6243 31.5554 51.1915C31.2306 50.7545 31.0021 50.2987 30.8698 49.8241C30.735 49.3387 30.702 48.8475 30.7707 48.3504C30.8431 47.8469 31.0178 47.3515 31.2948 46.8644C31.6642 46.2148 32.1182 45.7474 32.6569 45.4621C33.1956 45.1769 33.7865 45.0782 34.4296 45.1661C35.0727 45.254 35.7306 45.5341 36.4033 46.0064C36.9109 46.3627 37.3271 46.7594 37.6519 47.1964C37.9767 47.6335 38.2065 48.0947 38.3412 48.58C38.4797 49.0589 38.5145 49.5469 38.4458 50.044C38.3771 50.541 38.2042 51.0331 37.9272 51.5203ZM37.175 50.9922C37.4409 50.5246 37.5672 50.0542 37.5537 49.5813C37.5403 49.1084 37.3907 48.649 37.1052 48.2031C36.8233 47.7508 36.4133 47.3357 35.8751 46.9579C35.0617 46.3869 34.321 46.1396 33.653 46.2159C32.9886 46.2857 32.4533 46.6779 32.047 47.3924C31.7811 47.8601 31.653 48.3336 31.6628 48.8131C31.6701 49.2817 31.8166 49.739 32.1022 50.1848C32.3816 50.6264 32.7935 51.0382 33.3378 51.4203C34.145 51.987 34.8857 52.2343 35.5599 52.1623C36.2341 52.0903 36.7724 51.7002 37.175 50.9922Z" fill="black"/>
<path d="M42.3718 44.9007C42.2619 45.002 42.1454 45.0485 42.0224 45.0402C41.9048 45.0268 41.7961 44.9596 41.6961 44.8387L37.2181 39.4227C37.1086 39.2902 37.0555 39.1616 37.0587 39.0367C37.062 38.9119 37.1131 38.8039 37.212 38.7127C37.3054 38.6266 37.391 38.578 37.4691 38.567C37.5471 38.556 37.652 38.5658 37.7838 38.5964L45.2911 40.2293L45.0851 40.4192L41.1999 35.7202C41.0951 35.5935 41.0468 35.4706 41.0548 35.3515C41.0636 35.2216 41.1257 35.1035 41.241 34.9971C41.3564 34.8907 41.4728 34.8442 41.5904 34.8576C41.7032 34.8652 41.812 34.9324 41.9167 35.0591L46.409 40.4924C46.509 40.6133 46.5573 40.7362 46.554 40.861C46.5563 40.9808 46.5107 41.0837 46.4173 41.1698C46.3294 41.2509 46.2386 41.2991 46.1448 41.3145C46.0613 41.3306 45.9537 41.3234 45.8218 41.2927L38.3228 39.6523L38.5123 39.4775L42.4047 44.1852C42.5047 44.3062 42.553 44.429 42.5497 44.5539C42.5464 44.6787 42.4871 44.7943 42.3718 44.9007Z" fill="black"/>
<path d="M52.5066 37.4864C52.3519 37.5611 52.2146 37.5776 52.0949 37.5359C51.9719 37.4874 51.8731 37.3857 51.7983 37.231L48.9472 31.3265L46.7369 32.3939C46.609 32.4556 46.4918 32.4707 46.3853 32.4391C46.2756 32.4009 46.1898 32.3178 46.1281 32.19C46.0664 32.0621 46.0563 31.9467 46.0978 31.8437C46.1393 31.7406 46.224 31.6582 46.3518 31.5965L51.7113 29.0086C51.8458 28.9436 51.963 28.9285 52.0628 28.9633C52.1693 28.9949 52.2534 29.0746 52.3152 29.2024C52.3769 29.3303 52.3886 29.4491 52.3503 29.5588C52.3155 29.6586 52.2309 29.741 52.0963 29.806L49.8859 30.8733L52.737 36.7777C52.8117 36.9325 52.8298 37.0731 52.7913 37.1996C52.7563 37.3161 52.6614 37.4117 52.5066 37.4864Z" fill="black"/>
<path d="M59.1554 35.1651C58.9934 35.193 58.8583 35.1709 58.7502 35.0986C58.6405 35.0191 58.5667 34.8955 58.5288 34.7279L57.0064 27.9821C56.9686 27.8144 56.984 27.6793 57.0526 27.5766C57.1286 27.4726 57.2476 27.4067 57.4096 27.3788L60.0384 26.9261C60.8779 26.7815 61.5666 26.8673 62.1047 27.1836C62.6484 27.4913 63.0009 28.0023 63.1621 28.7166C63.2673 29.183 63.2547 29.6017 63.1242 29.9725C62.992 30.336 62.7506 30.6388 62.3998 30.8809C62.049 31.1231 61.5974 31.2917 61.0452 31.3868L61.1211 31.2147L61.3641 31.1729C61.6586 31.1222 61.9291 31.1513 62.1756 31.2603C62.4294 31.368 62.6771 31.5677 62.9189 31.8592L64.3521 33.5319C64.4447 33.6371 64.4996 33.745 64.5169 33.8556C64.5342 33.9662 64.5143 34.0643 64.4571 34.1499C64.3983 34.2282 64.2989 34.2793 64.159 34.3034C64.0117 34.3288 63.8873 34.3199 63.7858 34.2768C63.6826 34.2265 63.5839 34.145 63.4897 34.0325L61.8082 32.0732C61.5771 31.795 61.3478 31.6262 61.1202 31.567C60.891 31.5004 60.6034 31.497 60.2573 31.5566L58.9318 31.7849L59.5561 34.5509C59.5939 34.7186 59.5793 34.8574 59.5123 34.9674C59.4511 35.0688 59.3321 35.1347 59.1554 35.1651ZM58.7542 30.9977L60.7092 30.661C61.2983 30.5595 61.713 30.3632 61.9533 30.0719C62.1919 29.7734 62.2577 29.3872 62.1508 28.9134C62.0439 28.4397 61.816 28.1079 61.4672 27.9181C61.1184 27.7283 60.6494 27.6841 60.0603 27.7855L58.1052 28.1222L58.7542 30.9977Z" fill="black"/>
<path d="M68.7328 34.5146C68.5686 34.5067 68.4401 34.4559 68.3473 34.362C68.2542 34.2606 68.2046 34.1241 68.1984 33.9523L67.9469 26.9742C67.9405 26.795 67.9804 26.6627 68.0667 26.5774C68.1531 26.492 68.2783 26.4533 68.4425 26.4611C68.6142 26.4693 68.7464 26.5204 68.8392 26.6143C68.932 26.7081 68.9816 26.8447 68.9881 27.0239L69.2396 34.0021C69.2458 34.1738 69.2058 34.3061 69.1198 34.3989C69.0409 34.4846 68.9119 34.5231 68.7328 34.5146Z" fill="black"/>
<path d="M73.9858 35.2926C73.8419 35.2523 73.7343 35.1758 73.6631 35.0633C73.5991 34.9527 73.5804 34.8201 73.6069 34.6655L74.7946 27.7391C74.8236 27.5697 74.8853 27.4519 74.9796 27.3857C75.0739 27.3195 75.1858 27.3045 75.3153 27.3408C75.4376 27.375 75.5274 27.4233 75.5846 27.4856C75.6417 27.548 75.7004 27.6454 75.7606 27.7781L79.2723 35.2681L79.0024 35.1925L80.0329 29.183C80.0607 29.021 80.1211 28.9105 80.2141 28.8517C80.3156 28.7875 80.4419 28.7766 80.593 28.8189C80.7441 28.8612 80.8517 28.9376 80.9157 29.0482C80.9809 29.1514 80.9997 29.284 80.9719 29.446L79.7804 36.3945C79.7539 36.5492 79.6935 36.6596 79.5992 36.7258C79.5121 36.794 79.4074 36.811 79.2851 36.7767C79.1699 36.7445 79.0772 36.6915 79.0069 36.6178C78.9425 36.5535 78.8802 36.455 78.82 36.3223L75.3192 28.8353L75.5674 28.9049L74.5351 34.9254C74.5086 35.0801 74.4482 35.1905 74.3539 35.2567C74.2596 35.323 74.1369 35.3349 73.9858 35.2926Z" fill="black"/>
<path d="M85.5451 38.648C84.9113 38.2522 84.4358 37.7624 84.1187 37.1787C83.8049 36.5882 83.652 35.9405 83.6601 35.2355C83.6777 34.5278 83.8685 33.8054 84.2323 33.0683C84.5068 32.5122 84.8261 32.0586 85.1901 31.7074C85.5575 31.3495 85.952 31.0962 86.3736 30.9475C86.8049 30.7961 87.252 30.7554 87.715 30.8254C88.1843 30.8993 88.6566 31.0847 89.1319 31.3815C89.7657 31.7773 90.2411 32.2671 90.5583 32.8508C90.8754 33.4346 91.0268 34.077 91.0124 34.778C90.998 35.4791 90.8089 36.1981 90.4451 36.9351C90.1706 37.4912 89.8496 37.9482 89.4823 38.3061C89.1149 38.664 88.7156 38.9187 88.2843 39.0701C87.8594 39.2255 87.4154 39.2682 86.9525 39.1982C86.4895 39.1282 86.0204 38.9448 85.5451 38.648ZM85.9519 37.8238C86.4082 38.1088 86.8525 38.2417 87.2849 38.2224C87.7173 38.2032 88.1232 38.0359 88.5027 37.7207C88.8885 37.4094 89.2269 36.9589 89.518 36.3693C89.9579 35.4781 90.1084 34.6693 89.9696 33.9427C89.8371 33.22 89.4222 32.641 88.7251 32.2057C88.2688 31.9207 87.8213 31.7858 87.3826 31.8011C86.9535 31.8137 86.5492 31.9776 86.1697 32.2929C85.7936 32.6014 85.4583 33.0538 85.164 33.6502C84.7274 34.5346 84.5769 35.3435 84.7124 36.0768C84.8479 36.8101 85.2611 37.3924 85.9519 37.8238Z" fill="black"/>
</g>
<rect x="87.9427" y="4.94665" width="92.7592" height="92.1665" rx="46.0832" transform="rotate(64.2255 87.9427 4.94665)" stroke="black" stroke-width="0.296355"/>
<path d="M96.5679 75.5769C96.609 75.4333 96.6839 75.3342 96.7927 75.2798C96.9015 75.2254 97.0278 75.2188 97.1715 75.2598L103.972 77.2034C104.122 77.2465 104.226 77.3189 104.282 77.4205C104.344 77.5313 104.354 77.6586 104.313 77.8023C104.276 77.9316 104.222 78.025 104.152 78.0825C104.079 78.1471 103.972 78.1943 103.831 78.2241L97.5852 79.563L97.6807 79.2289L102.276 83.6663C102.38 83.7659 102.446 83.8588 102.476 83.945C102.506 84.0312 102.502 84.139 102.465 84.2683C102.424 84.412 102.349 84.511 102.24 84.5654C102.139 84.6218 102.013 84.6285 101.862 84.5854L95.0616 82.6418C94.9179 82.6008 94.8143 82.5284 94.7506 82.4247C94.685 82.3283 94.6737 82.2046 94.7168 82.0537C94.7599 81.9028 94.8359 81.8002 94.9447 81.7458C95.0514 81.6986 95.1766 81.6955 95.3203 81.7366L101.129 83.3968L101.061 83.6339L96.9617 79.6645C96.8847 79.5803 96.8303 79.4987 96.7985 79.4197C96.7718 79.3499 96.7739 79.2611 96.8047 79.1534C96.8334 79.0528 96.8832 78.9738 96.9541 78.9163C97.0228 78.866 97.1075 78.828 97.2081 78.8024L102.806 77.5697L102.732 77.8283L96.9127 76.1651C96.769 76.124 96.6654 76.0517 96.6018 75.948C96.5361 75.8515 96.5248 75.7278 96.5679 75.5769Z" fill="black"/>
<path d="M92.1038 87.0397C92.1904 86.9368 92.2831 86.8731 92.3817 86.8487C92.4756 86.8301 92.5673 86.8487 92.657 86.9046C92.7467 86.9605 92.8208 87.0523 92.8795 87.1798L96.2087 93.9811C96.2854 94.1336 96.3159 94.2715 96.2999 94.3948C96.2898 94.523 96.2438 94.6357 96.162 94.7328C96.0802 94.83 95.9794 94.8917 95.8597 94.9179C95.7409 94.9547 95.5974 94.9511 95.4292 94.9072L88.1594 92.788C88.0238 92.7519 87.9179 92.6921 87.8417 92.6085C87.7665 92.5354 87.7301 92.451 87.7325 92.3554C87.7406 92.2645 87.7879 92.1676 87.8745 92.0647C87.9708 91.9504 88.0763 91.883 88.1912 91.8625C88.3118 91.8468 88.451 91.8614 88.6086 91.9062L90.5445 92.4954L90.0284 92.6909L93.1174 89.0207L93.0128 89.5627L92.1018 87.7558C92.0193 87.5985 91.976 87.4643 91.9717 87.3533C91.9732 87.2471 92.0172 87.1426 92.1038 87.0397ZM95.216 93.9074L93.1776 89.9065L93.5309 89.8522L90.9183 92.9564L90.9042 92.6076L95.2015 93.9245L95.216 93.9074Z" fill="black"/>
<path d="M80.9247 96.6877C81.6734 96.2972 82.3837 96.1079 83.0556 96.1198C83.7244 96.1418 84.3346 96.3502 84.8861 96.7452C85.431 97.1436 85.897 97.7138 86.284 98.4558C86.5743 99.0123 86.7572 99.5489 86.8329 100.066C86.9121 100.589 86.8871 101.082 86.758 101.546C86.6257 102.019 86.3941 102.448 86.0631 102.831C85.7255 103.218 85.2917 103.549 84.7617 103.826C84.3509 104.04 83.924 104.191 83.481 104.279C83.0415 104.373 82.5988 104.381 82.1529 104.302C82.0423 104.284 81.9564 104.24 81.895 104.171C81.8271 104.105 81.7823 104.027 81.7607 103.937C81.7391 103.848 81.7426 103.757 81.7711 103.667C81.793 103.579 81.8435 103.507 81.9228 103.448C81.9988 103.4 82.0988 103.382 82.2226 103.393C82.5979 103.45 82.9571 103.444 83.3001 103.375C83.6366 103.309 83.9803 103.184 84.3315 103.001C84.8548 102.728 85.2417 102.387 85.4921 101.979C85.7459 101.577 85.8567 101.118 85.8245 100.604C85.7891 100.1 85.6176 99.5534 85.3101 98.9638C84.8367 98.0561 84.2653 97.4777 83.596 97.2285C82.92 96.9827 82.1613 97.0793 81.3199 97.5181C81.0086 97.6805 80.7227 97.8676 80.4623 98.0792C80.1952 98.2943 79.9535 98.5257 79.7372 98.7734L79.6768 98.1729L80.926 100.568L82.2775 99.8629C82.3967 99.8007 82.5101 99.7837 82.6175 99.812C82.7183 99.8437 82.7981 99.9158 82.8568 100.028C82.9156 100.141 82.9274 100.244 82.8922 100.339C82.8504 100.436 82.7699 100.516 82.6507 100.578L80.8917 101.496C80.7725 101.558 80.6624 101.573 80.5616 101.542C80.4542 101.513 80.3677 101.436 80.302 101.31L78.9699 98.7565C78.9146 98.6505 78.8861 98.5474 78.8844 98.4471C78.8861 98.3535 78.9247 98.266 79.0002 98.1845C79.2197 97.9267 79.5026 97.6612 79.8488 97.3879C80.1951 97.1146 80.5537 96.8812 80.9247 96.6877Z" fill="black"/>
<path d="M73.9992 99.3233C74.1331 99.3112 74.2437 99.3312 74.331 99.3833C74.4108 99.4361 74.4628 99.5139 74.4872 99.6168C74.5115 99.7196 74.4996 99.837 74.4515 99.9689L72.0292 107.143C71.9764 107.306 71.9009 107.425 71.8028 107.501C71.7053 107.585 71.5934 107.633 71.4668 107.644C71.3403 107.656 71.2253 107.629 71.1219 107.563C71.0116 107.506 70.9122 107.402 70.8236 107.253L67.1513 100.63C67.0803 100.509 67.0472 100.392 67.052 100.279C67.05 100.174 67.0835 100.089 67.1525 100.022C67.2222 99.9636 67.324 99.9281 67.458 99.916C67.6068 99.9025 67.7292 99.9289 67.8253 99.9952C67.922 100.069 68.0106 100.177 68.091 100.32L69.0514 102.101L68.5472 101.877L73.3247 101.444L72.869 101.755L73.4937 99.8306C73.5458 99.6608 73.6094 99.535 73.6845 99.4531C73.7603 99.3787 73.8652 99.3355 73.9992 99.3233ZM71.3759 106.392L72.7441 102.116L73.0332 102.326L68.9924 102.692L69.2279 102.434L71.3536 106.394L71.3759 106.392Z" fill="black"/>
<path d="M62.2263 99.2586C62.3848 99.3023 62.4979 99.3839 62.5657 99.5034C62.6263 99.6209 62.6348 99.7589 62.591 99.9173L60.7605 106.551C60.7148 106.717 60.6368 106.831 60.5265 106.894C60.4162 106.956 60.2819 106.966 60.1234 106.922C59.9577 106.876 59.8436 106.798 59.781 106.688C59.7184 106.578 59.71 106.44 59.7557 106.274L61.4908 99.9858L58.055 99.0378C57.9038 98.996 57.8021 98.9292 57.7499 98.8373C57.6906 98.7434 57.6798 98.628 57.7175 98.4912C57.7573 98.3471 57.8277 98.2464 57.9288 98.189C58.0207 98.1369 58.1423 98.1317 58.2935 98.1734L62.2263 99.2586Z" fill="black"/>
<path d="M53.5476 95.7355C53.6889 95.8195 53.7751 95.9229 53.8064 96.0458C53.8338 96.1751 53.8036 96.3137 53.7158 96.4614L50.1476 102.464C50.056 102.618 49.9487 102.71 49.8258 102.742C49.7029 102.773 49.5708 102.747 49.4295 102.663C49.2818 102.575 49.1923 102.469 49.161 102.346C49.1298 102.224 49.16 102.085 49.2516 101.931L52.8198 95.9287C52.9077 95.781 53.0149 95.6883 53.1416 95.6506C53.2581 95.6156 53.3934 95.6438 53.5476 95.7355Z" fill="black"/>
<rect x="89.599" y="0.197868" width="99.8717" height="99.279" rx="49.6395" transform="rotate(64.2255 89.599 0.197868)" stroke="black" stroke-width="0.296355" stroke-dasharray="0.59 0.59"/>
<path d="M65.8997 45.9665C54.907 45.9665 45.9947 54.8794 45.9947 65.8728C45.9947 76.8662 54.907 85.7791 65.8997 85.7791C76.8924 85.7791 85.8047 76.8662 85.8047 65.8728C85.8047 54.8794 76.8924 45.9665 65.8997 45.9665ZM73.5641 67.4041L67.4308 61.3192L67.4308 75.6345H64.3685L64.3685 61.3192L58.2353 67.4041L56.0783 65.2306L65.8997 55.4852L75.7211 65.2316L73.5641 67.4041Z" fill="black"/>
<defs>
<clipPath id="clip0_1052_5176">
<rect x="88.0117" y="4.74878" width="93.0555" height="92.4628" rx="46.2314" transform="rotate(64.2255 88.0117 4.74878)" fill="white"/>
</clipPath>
</defs>
</svg>
