<svg width="540" height="445" viewBox="0 0 540 445" fill="none" xmlns="http://www.w3.org/2000/svg">
<rect width="540" height="445" fill="white"/>
<rect width="540" height="445" fill="#F7C844"/>
<path d="M97.225 104.6C94.225 103.15 91.675 102.075 89.575 101.375C87.525 100.625 85.45 100.1 83.35 99.8C81.25 99.5 78.875 99.35 76.225 99.35H64V92.225H97.225V104.6ZM92.35 123.275C86.75 123.025 80.825 122.9 74.575 122.9H68.275V116.075H74.575C80.075 116.075 86 115.925 92.35 115.625V123.275ZM52.375 149V148.625C53.275 147.425 53.95 146.375 54.4 145.475C54.85 144.575 55.175 143.475 55.375 142.175C55.575 140.875 55.675 138.975 55.675 136.475V104.75C55.675 102.25 55.575 100.35 55.375 99.05C55.175 97.7 54.85 96.6 54.4 95.75C53.95 94.85 53.275 93.8 52.375 92.6V92.225H59.2H72.7V136.475C72.7 138.975 72.8 140.875 73 142.175C73.2 143.475 73.55 144.575 74.05 145.475C74.6 146.375 75.35 147.425 76.3 148.625V149H68.875H59.2H52.375ZM92.4186 148.7C93.4186 148 94.3186 147.25 95.1186 146.45C95.9186 145.6 96.6936 144.6 97.4436 143.45C98.1936 142.25 98.8936 140.8 99.5436 139.1L115.444 98.225C115.694 97.575 115.894 96.975 116.044 96.425C116.194 95.875 116.294 95.3 116.344 94.7C116.394 94.2 116.369 93.775 116.269 93.425C116.219 93.075 116.144 92.675 116.044 92.225H132.994L151.144 139.625C151.794 141.225 152.394 142.525 152.944 143.525C153.494 144.525 154.119 145.425 154.819 146.225C155.519 146.975 156.344 147.775 157.294 148.625V149H130.669V148.625C131.769 147.825 132.544 147.075 132.994 146.375C133.494 145.675 133.744 144.825 133.744 143.825C133.744 142.825 133.469 141.5 132.919 139.85L120.544 100.4H122.869L109.144 139.55C108.494 141.4 108.144 142.825 108.094 143.825C108.044 144.825 108.244 145.675 108.694 146.375C109.144 147.025 109.844 147.8 110.794 148.7V149H92.4186V148.7ZM106.594 127.325H138.769V133.85H106.594V127.325ZM160.041 149V148.625C160.941 147.425 161.616 146.375 162.066 145.475C162.516 144.575 162.841 143.475 163.041 142.175C163.241 140.875 163.341 138.975 163.341 136.475V104.75C163.341 102.25 163.241 100.35 163.041 99.05C162.841 97.7 162.516 96.6 162.066 95.75C161.616 94.85 160.941 93.8 160.041 92.6V92.225H166.866H176.766H183.666V92.6C182.766 93.8 182.066 94.85 181.566 95.75C181.116 96.6 180.791 97.7 180.591 99.05C180.441 100.35 180.366 102.25 180.366 104.75V136.475C180.366 138.975 180.441 140.875 180.591 142.175C180.791 143.475 181.116 144.575 181.566 145.475C182.066 146.375 182.766 147.425 183.666 148.625V149H176.766H166.866H160.041ZM214.442 150.35C209.642 150.35 205.367 149.625 201.617 148.175C197.917 146.675 194.892 144.475 192.542 141.575C190.242 138.675 188.817 135.15 188.267 131H202.967C203.467 134.85 204.642 137.95 206.492 140.3C208.342 142.6 211.017 143.775 214.517 143.825C216.717 143.825 218.442 143.325 219.692 142.325C220.992 141.325 221.642 139.9 221.642 138.05C221.692 136.6 221.267 135.3 220.367 134.15C219.517 133 218.242 131.9 216.542 130.85C214.842 129.75 212.342 128.4 209.042 126.8L207.842 126.2L207.017 125.825C203.317 123.925 200.317 122.175 198.017 120.575C195.717 118.925 193.892 117.025 192.542 114.875C191.242 112.725 190.592 110.275 190.592 107.525C190.592 104.075 191.517 101.125 193.367 98.675C195.267 96.175 197.842 94.3 201.092 93.05C204.392 91.8 208.117 91.175 212.267 91.175C216.517 91.175 220.367 91.825 223.817 93.125C227.267 94.425 230.142 96.4 232.442 99.05C234.792 101.65 236.367 104.875 237.167 108.725H222.542C222.392 106.725 221.917 104.9 221.117 103.25C220.317 101.6 219.167 100.275 217.667 99.275C216.217 98.225 214.492 97.7 212.492 97.7C210.392 97.65 208.767 98.125 207.617 99.125C206.467 100.075 205.867 101.4 205.817 103.1C205.817 104.65 206.317 106.05 207.317 107.3C208.317 108.5 209.667 109.625 211.367 110.675C213.117 111.725 215.592 113 218.792 114.5L219.392 114.8L219.992 115.1C223.842 117.05 226.917 118.825 229.217 120.425C231.567 121.975 233.442 123.85 234.842 126.05C236.242 128.2 236.942 130.75 236.942 133.7C236.942 137.1 235.967 140.075 234.017 142.625C232.117 145.125 229.467 147.05 226.067 148.4C222.667 149.7 218.792 150.35 214.442 150.35ZM274.674 150.35C268.124 150.35 262.399 149.15 257.499 146.75C252.599 144.3 248.799 140.85 246.099 136.4C243.399 131.9 242.049 126.65 242.049 120.65C242.049 114.7 243.399 109.5 246.099 105.05C248.799 100.6 252.599 97.175 257.499 94.775C262.399 92.325 268.124 91.1 274.674 91.1C281.124 91.1 286.799 92.325 291.699 94.775C296.599 97.175 300.399 100.6 303.099 105.05C305.799 109.5 307.149 114.75 307.149 120.8C307.149 126.75 305.799 131.95 303.099 136.4C300.399 140.85 296.599 144.3 291.699 146.75C286.799 149.15 281.124 150.35 274.674 150.35ZM274.674 142.625C277.774 142.625 280.399 141.75 282.549 140C284.749 138.25 286.399 135.75 287.499 132.5C288.649 129.2 289.224 125.25 289.224 120.65C289.224 116.15 288.649 112.275 287.499 109.025C286.399 105.725 284.749 103.2 282.549 101.45C280.399 99.7 277.774 98.825 274.674 98.825C271.524 98.825 268.849 99.7 266.649 101.45C264.499 103.2 262.849 105.725 261.699 109.025C260.599 112.275 260.049 116.2 260.049 120.8C260.049 125.3 260.599 129.2 261.699 132.5C262.849 135.8 264.499 138.325 266.649 140.075C268.849 141.775 271.524 142.625 274.674 142.625ZM319.285 101.975L318.91 92.225H330.535L362.11 140.825L362.41 149H349.585L319.285 101.975ZM312.16 149V148.625C313.11 147.375 313.835 146.275 314.335 145.325C314.835 144.325 315.185 143.1 315.385 141.65C315.585 140.2 315.685 138.125 315.685 135.425V104.75C315.685 102.25 315.61 100.35 315.46 99.05C315.36 97.7 315.135 96.6 314.785 95.75C314.485 94.85 314.035 93.8 313.435 92.6V92.225H318.385H324.835V135.425C324.835 138.125 324.985 140.2 325.285 141.65C325.585 143.1 326.085 144.325 326.785 145.325C327.485 146.275 328.535 147.375 329.935 148.625V149H319.885H319.36H312.16ZM355.36 105.8C355.36 103.1 355.21 101.025 354.91 99.575C354.66 98.125 354.185 96.925 353.485 95.975C352.835 94.975 351.885 93.85 350.635 92.6V92.225H360.01H360.835H368.035V92.6C367.085 93.85 366.36 94.975 365.86 95.975C365.36 96.925 365.01 98.125 364.81 99.575C364.61 101.025 364.51 103.1 364.51 105.8V149H355.36V105.8ZM398.499 150.35C393.699 150.35 389.424 149.625 385.674 148.175C381.974 146.675 378.949 144.475 376.599 141.575C374.299 138.675 372.874 135.15 372.324 131H387.024C387.524 134.85 388.699 137.95 390.549 140.3C392.399 142.6 395.074 143.775 398.574 143.825C400.774 143.825 402.499 143.325 403.749 142.325C405.049 141.325 405.699 139.9 405.699 138.05C405.749 136.6 405.324 135.3 404.424 134.15C403.574 133 402.299 131.9 400.599 130.85C398.899 129.75 396.399 128.4 393.099 126.8L391.899 126.2L391.074 125.825C387.374 123.925 384.374 122.175 382.074 120.575C379.774 118.925 377.949 117.025 376.599 114.875C375.299 112.725 374.649 110.275 374.649 107.525C374.649 104.075 375.574 101.125 377.424 98.675C379.324 96.175 381.899 94.3 385.149 93.05C388.449 91.8 392.174 91.175 396.324 91.175C400.574 91.175 404.424 91.825 407.874 93.125C411.324 94.425 414.199 96.4 416.499 99.05C418.849 101.65 420.424 104.875 421.224 108.725H406.599C406.449 106.725 405.974 104.9 405.174 103.25C404.374 101.6 403.224 100.275 401.724 99.275C400.274 98.225 398.549 97.7 396.549 97.7C394.449 97.65 392.824 98.125 391.674 99.125C390.524 100.075 389.924 101.4 389.874 103.1C389.874 104.65 390.374 106.05 391.374 107.3C392.374 108.5 393.724 109.625 395.424 110.675C397.174 111.725 399.649 113 402.849 114.5L403.449 114.8L404.049 115.1C407.899 117.05 410.974 118.825 413.274 120.425C415.624 121.975 417.499 123.85 418.899 126.05C420.299 128.2 420.999 130.75 420.999 133.7C420.999 137.1 420.024 140.075 418.074 142.625C416.174 145.125 413.524 147.05 410.124 148.4C406.724 149.7 402.849 150.35 398.499 150.35ZM53.575 169.75C52.925 168.2 52.325 166.875 51.775 165.775C51.275 164.625 50.725 163.625 50.125 162.775C49.525 161.875 48.85 161.15 48.1 160.6V160.225H73.675V160.6C72.675 161.05 71.95 161.675 71.5 162.475C71.1 163.275 70.925 164.25 70.975 165.4C71.025 166.5 71.3 167.825 71.8 169.375L83.8 206.65H81.325L93.85 169.45C94.45 167.65 94.775 166.225 94.825 165.175C94.925 164.125 94.775 163.275 94.375 162.625C94.025 161.925 93.425 161.25 92.575 160.6V160.225H109.225V160.6C108.425 161.3 107.725 162 107.125 162.7C106.525 163.35 105.975 164.2 105.475 165.25C104.975 166.3 104.375 167.75 103.675 169.6L88 211.675C87.65 212.675 87.35 213.575 87.1 214.375C86.9 215.175 86.725 215.975 86.575 216.775C86.575 216.825 86.575 216.9 86.575 217H71.575L53.575 169.75ZM111.701 217V216.625C112.601 215.425 113.276 214.375 113.726 213.475C114.176 212.575 114.501 211.475 114.701 210.175C114.901 208.875 115.001 206.975 115.001 204.475V172.75C115.001 170.25 114.901 168.35 114.701 167.05C114.501 165.7 114.176 164.6 113.726 163.75C113.276 162.85 112.601 161.8 111.701 160.6V160.225H118.526H128.426H135.326V160.6C134.426 161.8 133.726 162.85 133.226 163.75C132.776 164.6 132.451 165.7 132.251 167.05C132.101 168.35 132.026 170.25 132.026 172.75V204.475C132.026 206.975 132.101 208.875 132.251 210.175C132.451 211.475 132.776 212.575 133.226 213.475C133.726 214.375 134.426 215.425 135.326 216.625V217H128.426H118.526H111.701ZM143.297 169.75C142.647 168.2 142.047 166.875 141.497 165.775C140.997 164.625 140.447 163.625 139.847 162.775C139.247 161.875 138.572 161.15 137.822 160.6V160.225H163.397V160.6C162.397 161.05 161.672 161.675 161.222 162.475C160.822 163.275 160.647 164.25 160.697 165.4C160.747 166.5 161.022 167.825 161.522 169.375L173.522 206.65H171.047L183.572 169.45C184.172 167.65 184.497 166.225 184.547 165.175C184.647 164.125 184.497 163.275 184.097 162.625C183.747 161.925 183.147 161.25 182.297 160.6V160.225H198.947V160.6C198.147 161.3 197.447 162 196.847 162.7C196.247 163.35 195.697 164.2 195.197 165.25C194.697 166.3 194.097 167.75 193.397 169.6L177.722 211.675C177.372 212.675 177.072 213.575 176.822 214.375C176.622 215.175 176.447 215.975 176.297 216.775C176.297 216.825 176.297 216.9 176.297 217H161.297L143.297 169.75ZM223.248 190.75L225.948 191.65H216.198V185.425H224.973C228.723 185.425 231.573 184.675 233.523 183.175C235.473 181.625 236.448 179.125 236.448 175.675C236.448 172.675 235.523 170.45 233.673 169C231.823 167.55 229.098 166.825 225.498 166.825H217.248V160.225H228.948C234.298 160.225 238.748 160.75 242.298 161.8C245.848 162.8 248.573 164.425 250.473 166.675C252.373 168.875 253.323 171.75 253.323 175.3C253.323 178.6 252.548 181.35 250.998 183.55C249.498 185.75 247.348 187.425 244.548 188.575C241.748 189.725 238.373 190.4 234.423 190.6L236.673 187.45L259.023 216.4V217H239.298L223.248 190.75ZM201.423 217V216.625C202.323 215.425 202.998 214.375 203.448 213.475C203.898 212.575 204.223 211.475 204.423 210.175C204.623 208.875 204.723 206.975 204.723 204.475V172.75C204.723 170.25 204.623 168.35 204.423 167.05C204.223 165.7 203.898 164.6 203.448 163.75C202.998 162.85 202.323 161.8 201.423 160.6V160.225H208.248H221.598V204.475C221.598 206.975 221.698 208.875 221.898 210.175C222.148 211.475 222.523 212.575 223.023 213.475C223.523 214.375 224.273 215.425 225.273 216.625V217H217.773H208.248H201.423ZM272.946 210.025L286.821 209.95C289.471 209.95 291.646 209.825 293.346 209.575C295.046 209.325 296.871 208.825 298.821 208.075C300.821 207.325 303.521 206.2 306.921 204.7V217H272.946V210.025ZM261.921 217V216.625C262.821 215.425 263.496 214.375 263.946 213.475C264.396 212.575 264.721 211.475 264.921 210.175C265.121 208.875 265.221 206.975 265.221 204.475V172.75C265.221 170.25 265.121 168.35 264.921 167.05C264.721 165.7 264.396 164.6 263.946 163.75C263.496 162.85 262.821 161.8 261.921 160.6V160.225H268.746H282.246V217H268.746H261.921ZM301.221 191.275C298.171 191.125 295.221 191.025 292.371 190.975C289.521 190.925 286.921 190.9 284.571 190.9H276.171V184.45H284.571C289.821 184.45 295.371 184.3 301.221 184V191.275ZM305.346 172.375C304.596 172.125 303.621 171.725 302.421 171.175C299.921 170.075 297.896 169.275 296.346 168.775C294.796 168.275 293.296 167.9 291.846 167.65C290.446 167.35 288.921 167.2 287.271 167.2H272.796V160.225H305.346V172.375ZM64 278.575H77.05C79.7 278.575 81.9 278.45 83.65 278.2C85.4 277.9 87.25 277.4 89.2 276.7C91.2 276 93.875 274.875 97.225 273.325V286H64V278.575ZM52.375 286V285.625C53.275 284.425 53.95 283.375 54.4 282.475C54.85 281.575 55.175 280.475 55.375 279.175C55.575 277.875 55.675 275.975 55.675 273.475V241.75C55.675 239.25 55.575 237.35 55.375 236.05C55.175 234.7 54.85 233.6 54.4 232.75C53.95 231.85 53.275 230.8 52.375 229.6V229.225H59.2H69.175H76V229.6C75.1 230.8 74.4 231.85 73.9 232.75C73.45 233.6 73.125 234.7 72.925 236.05C72.775 237.35 72.7 239.25 72.7 241.75V286H59.2H52.375ZM92.6406 247.225C95.8406 247.125 98.3406 246.4 100.141 245.05C101.991 243.65 102.916 241.475 102.916 238.525L104.491 241.225H93.4656V229.15H106.891V239.275C106.891 243.725 105.616 247.375 103.066 250.225C100.566 253.025 97.0906 254.75 92.6406 255.4V247.225ZM128.157 287.131C124.043 287.131 120.649 286.069 117.974 283.943C115.369 281.749 114.066 278.594 114.066 274.48C114.066 271.874 114.717 269.714 116.02 268C117.323 266.217 119.277 264.709 121.883 263.474C124.489 262.24 128.089 260.937 132.683 259.566C133.3 259.36 133.849 259.223 134.329 259.154C137.346 258.194 139.746 257.303 141.529 256.48C143.312 255.657 144.752 254.526 145.849 253.086C146.946 251.577 147.494 249.589 147.494 247.12C147.563 243.829 146.569 241.291 144.512 239.509C142.523 237.726 139.609 236.834 135.769 236.834C132.752 236.834 129.974 237.451 127.437 238.686C124.9 239.851 122.877 241.669 121.369 244.137C119.86 246.537 119.072 249.52 119.003 253.086H116.226C116.363 249.177 117.323 245.851 119.106 243.109C120.889 240.366 123.22 238.343 126.1 237.04C129.049 235.669 132.272 234.983 135.769 234.983C140.294 234.983 143.826 236.046 146.363 238.171C148.9 240.297 150.169 243.554 150.169 247.943V275.406C150.169 277.737 150.409 279.589 150.889 280.96C151.369 282.331 151.986 283.326 152.74 283.943C153.563 284.491 154.523 284.766 155.62 284.766C156.443 284.766 157.197 284.663 157.883 284.457C158.569 284.183 159.186 283.771 159.734 283.223L159.837 284.869C159.289 285.417 158.637 285.829 157.883 286.103C157.197 286.446 156.306 286.617 155.209 286.617C152.603 286.617 150.649 285.691 149.346 283.84C148.112 281.92 147.494 279.143 147.494 275.509V268.72H148.214C146.98 273.931 144.683 278.32 141.323 281.886C137.963 285.383 133.574 287.131 128.157 287.131ZM128.157 285.074C131.929 285.074 135.289 283.977 138.237 281.783C141.186 279.589 143.449 276.674 145.026 273.04C146.672 269.337 147.494 265.257 147.494 260.8V251.337H147.906C147.837 253.12 147.152 254.629 145.849 255.863C144.614 257.029 143.072 257.989 141.22 258.743C139.437 259.429 136.866 260.286 133.506 261.314L133.197 261.417C129.014 262.651 125.826 263.783 123.632 264.811C121.437 265.771 119.723 267.04 118.489 268.617C117.323 270.126 116.74 272.114 116.74 274.583C116.74 278.011 117.803 280.617 119.929 282.4C122.054 284.183 124.797 285.074 128.157 285.074ZM165.959 286V285.794C166.645 284.354 167.125 283.223 167.399 282.4C167.673 281.577 167.845 280.617 167.913 279.52C168.05 278.423 168.119 276.811 168.119 274.686V247.943C168.119 245.68 168.05 244.034 167.913 243.006C167.845 241.909 167.673 240.949 167.399 240.126C167.125 239.303 166.645 238.206 165.959 236.834V236.629H169.662H169.147H171.513C171.17 238.48 170.93 240.091 170.793 241.463C170.725 242.766 170.69 244.926 170.69 247.943V274.994C170.69 277.051 170.725 278.594 170.793 279.623C170.93 280.651 171.17 281.611 171.513 282.503C171.925 283.326 172.542 284.423 173.365 285.794V286H169.045H169.662H165.959ZM169.353 252.263H170.587C170.93 250 171.856 247.634 173.365 245.166C174.942 242.629 177.205 240.503 180.153 238.789C183.102 237.006 186.667 236.114 190.85 236.114V238.789C186.805 238.651 183.239 239.44 180.153 241.154C177.136 242.8 174.805 245.2 173.159 248.354C171.513 251.44 170.69 254.971 170.69 258.949L169.353 252.263ZM215.36 286.617C212 286.617 209.257 285.554 207.131 283.429C205.074 281.303 204.046 277.6 204.046 272.32V219.246L206.411 216.16H206.617V272.32C206.617 276.983 207.406 280.206 208.983 281.989C210.629 283.703 212.754 284.56 215.36 284.56C217.623 284.56 219.646 283.943 221.429 282.709C223.211 281.406 224.686 279.554 225.851 277.154L226.674 278.8C225.646 281.2 224.137 283.12 222.149 284.56C220.16 285.931 217.897 286.617 215.36 286.617ZM192.834 236.629H224.411V238.48H192.834V236.629ZM264.88 278.8H275.68C279.38 278.8 282.555 278 285.205 276.4C287.905 274.75 289.955 272.35 291.355 269.2C292.805 266.05 293.53 262.2 293.53 257.65C293.53 252.95 292.805 249.025 291.355 245.875C289.955 242.725 287.93 240.375 285.28 238.825C282.63 237.225 279.43 236.425 275.68 236.425H264.88V229.225H276.88C283.98 229.225 290.105 230.325 295.255 232.525C300.455 234.725 304.43 237.975 307.18 242.275C309.93 246.525 311.305 251.625 311.305 257.575C311.305 263.525 309.93 268.625 307.18 272.875C304.43 277.125 300.48 280.375 295.33 282.625C290.18 284.875 284.03 286 276.88 286H264.88V278.8ZM249.88 286V285.625C250.78 284.425 251.455 283.375 251.905 282.475C252.355 281.575 252.68 280.475 252.88 279.175C253.08 277.875 253.18 275.975 253.18 273.475V241.75C253.18 239.25 253.08 237.35 252.88 236.05C252.68 234.7 252.355 233.6 251.905 232.75C251.455 231.85 250.78 230.8 249.88 229.6V229.225H256.705H270.205V286H256.705H249.88ZM309.333 285.7C310.333 285 311.233 284.25 312.033 283.45C312.833 282.6 313.608 281.6 314.358 280.45C315.108 279.25 315.808 277.8 316.458 276.1L332.358 235.225C332.608 234.575 332.808 233.975 332.958 233.425C333.108 232.875 333.208 232.3 333.258 231.7C333.308 231.2 333.283 230.775 333.183 230.425C333.133 230.075 333.058 229.675 332.958 229.225H349.908L368.058 276.625C368.708 278.225 369.308 279.525 369.858 280.525C370.408 281.525 371.033 282.425 371.733 283.225C372.433 283.975 373.258 284.775 374.208 285.625V286H347.583V285.625C348.683 284.825 349.458 284.075 349.908 283.375C350.408 282.675 350.658 281.825 350.658 280.825C350.658 279.825 350.383 278.5 349.833 276.85L337.458 237.4H339.783L326.058 276.55C325.408 278.4 325.058 279.825 325.008 280.825C324.958 281.825 325.158 282.675 325.608 283.375C326.058 284.025 326.758 284.8 327.708 285.7V286H309.333V285.7ZM323.508 264.325H355.683V270.85H323.508V264.325ZM383.855 238.975L383.48 229.225H395.105L426.68 277.825L426.98 286H414.155L383.855 238.975ZM376.73 286V285.625C377.68 284.375 378.405 283.275 378.905 282.325C379.405 281.325 379.755 280.1 379.955 278.65C380.155 277.2 380.255 275.125 380.255 272.425V241.75C380.255 239.25 380.18 237.35 380.03 236.05C379.93 234.7 379.705 233.6 379.355 232.75C379.055 231.85 378.605 230.8 378.005 229.6V229.225H382.955H389.405V272.425C389.405 275.125 389.555 277.2 389.855 278.65C390.155 280.1 390.655 281.325 391.355 282.325C392.055 283.275 393.105 284.375 394.505 285.625V286H384.455H383.93H376.73ZM419.93 242.8C419.93 240.1 419.78 238.025 419.48 236.575C419.23 235.125 418.755 233.925 418.055 232.975C417.405 231.975 416.455 230.85 415.205 229.6V229.225H424.58H425.405H432.605V229.6C431.655 230.85 430.93 231.975 430.43 232.975C429.93 233.925 429.58 235.125 429.38 236.575C429.18 238.025 429.08 240.1 429.08 242.8V286H419.93V242.8ZM463.07 287.35C458.27 287.35 453.995 286.625 450.245 285.175C446.545 283.675 443.52 281.475 441.17 278.575C438.87 275.675 437.445 272.15 436.895 268H451.595C452.095 271.85 453.27 274.95 455.12 277.3C456.97 279.6 459.645 280.775 463.145 280.825C465.345 280.825 467.07 280.325 468.32 279.325C469.62 278.325 470.27 276.9 470.27 275.05C470.32 273.6 469.895 272.3 468.995 271.15C468.145 270 466.87 268.9 465.17 267.85C463.47 266.75 460.97 265.4 457.67 263.8L456.47 263.2L455.645 262.825C451.945 260.925 448.945 259.175 446.645 257.575C444.345 255.925 442.52 254.025 441.17 251.875C439.87 249.725 439.22 247.275 439.22 244.525C439.22 241.075 440.145 238.125 441.995 235.675C443.895 233.175 446.47 231.3 449.72 230.05C453.02 228.8 456.745 228.175 460.895 228.175C465.145 228.175 468.995 228.825 472.445 230.125C475.895 231.425 478.77 233.4 481.07 236.05C483.42 238.65 484.995 241.875 485.795 245.725H471.17C471.02 243.725 470.545 241.9 469.745 240.25C468.945 238.6 467.795 237.275 466.295 236.275C464.845 235.225 463.12 234.7 461.12 234.7C459.02 234.65 457.395 235.125 456.245 236.125C455.095 237.075 454.495 238.4 454.445 240.1C454.445 241.65 454.945 243.05 455.945 244.3C456.945 245.5 458.295 246.625 459.995 247.675C461.745 248.725 464.22 250 467.42 251.5L468.02 251.8L468.62 252.1C472.47 254.05 475.545 255.825 477.845 257.425C480.195 258.975 482.07 260.85 483.47 263.05C484.87 265.2 485.57 267.75 485.57 270.7C485.57 274.1 484.595 277.075 482.645 279.625C480.745 282.125 478.095 284.05 474.695 285.4C471.295 286.7 467.42 287.35 463.07 287.35ZM59.275 306.975L58.9 297.225H70.525L102.1 345.825L102.4 354H89.575L59.275 306.975ZM52.15 354V353.625C53.1 352.375 53.825 351.275 54.325 350.325C54.825 349.325 55.175 348.1 55.375 346.65C55.575 345.2 55.675 343.125 55.675 340.425V309.75C55.675 307.25 55.6 305.35 55.45 304.05C55.35 302.7 55.125 301.6 54.775 300.75C54.475 299.85 54.025 298.8 53.425 297.6V297.225H58.375H64.825V340.425C64.825 343.125 64.975 345.2 65.275 346.65C65.575 348.1 66.075 349.325 66.775 350.325C67.475 351.275 68.525 352.375 69.925 353.625V354H59.875H59.35H52.15ZM95.35 310.8C95.35 308.1 95.2 306.025 94.9 304.575C94.65 303.125 94.175 301.925 93.475 300.975C92.825 299.975 91.875 298.85 90.625 297.6V297.225H100H100.825H108.025V297.6C107.075 298.85 106.35 299.975 105.85 300.975C105.35 301.925 105 303.125 104.8 304.575C104.6 306.025 104.5 308.1 104.5 310.8V354H95.35V310.8ZM145.548 355.35C138.998 355.35 133.273 354.15 128.373 351.75C123.473 349.3 119.673 345.85 116.973 341.4C114.273 336.9 112.923 331.65 112.923 325.65C112.923 319.7 114.273 314.5 116.973 310.05C119.673 305.6 123.473 302.175 128.373 299.775C133.273 297.325 138.998 296.1 145.548 296.1C151.998 296.1 157.673 297.325 162.573 299.775C167.473 302.175 171.273 305.6 173.973 310.05C176.673 314.5 178.023 319.75 178.023 325.8C178.023 331.75 176.673 336.95 173.973 341.4C171.273 345.85 167.473 349.3 162.573 351.75C157.673 354.15 151.998 355.35 145.548 355.35ZM145.548 347.625C148.648 347.625 151.273 346.75 153.423 345C155.623 343.25 157.273 340.75 158.373 337.5C159.523 334.2 160.098 330.25 160.098 325.65C160.098 321.15 159.523 317.275 158.373 314.025C157.273 310.725 155.623 308.2 153.423 306.45C151.273 304.7 148.648 303.825 145.548 303.825C142.398 303.825 139.723 304.7 137.523 306.45C135.373 308.2 133.723 310.725 132.573 314.025C131.473 317.275 130.923 321.2 130.923 325.8C130.923 330.3 131.473 334.2 132.573 337.5C133.723 340.8 135.373 343.325 137.523 345.075C139.723 346.775 142.398 347.625 145.548 347.625ZM208.07 355.35C203.27 355.35 198.995 354.625 195.245 353.175C191.545 351.675 188.52 349.475 186.17 346.575C183.87 343.675 182.445 340.15 181.895 336H196.595C197.095 339.85 198.27 342.95 200.12 345.3C201.97 347.6 204.645 348.775 208.145 348.825C210.345 348.825 212.07 348.325 213.32 347.325C214.62 346.325 215.27 344.9 215.27 343.05C215.32 341.6 214.895 340.3 213.995 339.15C213.145 338 211.87 336.9 210.17 335.85C208.47 334.75 205.97 333.4 202.67 331.8L201.47 331.2L200.645 330.825C196.945 328.925 193.945 327.175 191.645 325.575C189.345 323.925 187.52 322.025 186.17 319.875C184.87 317.725 184.22 315.275 184.22 312.525C184.22 309.075 185.145 306.125 186.995 303.675C188.895 301.175 191.47 299.3 194.72 298.05C198.02 296.8 201.745 296.175 205.895 296.175C210.145 296.175 213.995 296.825 217.445 298.125C220.895 299.425 223.77 301.4 226.07 304.05C228.42 306.65 229.995 309.875 230.795 313.725H216.17C216.02 311.725 215.545 309.9 214.745 308.25C213.945 306.6 212.795 305.275 211.295 304.275C209.845 303.225 208.12 302.7 206.12 302.7C204.02 302.65 202.395 303.125 201.245 304.125C200.095 305.075 199.495 306.4 199.445 308.1C199.445 309.65 199.945 311.05 200.945 312.3C201.945 313.5 203.295 314.625 204.995 315.675C206.745 316.725 209.22 318 212.42 319.5L213.02 319.8L213.62 320.1C217.47 322.05 220.545 323.825 222.845 325.425C225.195 326.975 227.07 328.85 228.47 331.05C229.87 333.2 230.57 335.75 230.57 338.7C230.57 342.1 229.595 345.075 227.645 347.625C225.745 350.125 223.095 352.05 219.695 353.4C216.295 354.7 212.42 355.35 208.07 355.35ZM278.106 327.75L280.806 328.65H271.056V322.425H279.831C283.581 322.425 286.431 321.675 288.381 320.175C290.331 318.625 291.306 316.125 291.306 312.675C291.306 309.675 290.381 307.45 288.531 306C286.681 304.55 283.956 303.825 280.356 303.825H272.106V297.225H283.806C289.156 297.225 293.606 297.75 297.156 298.8C300.706 299.8 303.431 301.425 305.331 303.675C307.231 305.875 308.181 308.75 308.181 312.3C308.181 315.6 307.406 318.35 305.856 320.55C304.356 322.75 302.206 324.425 299.406 325.575C296.606 326.725 293.231 327.4 289.281 327.6L291.531 324.45L313.881 353.4V354H294.156L278.106 327.75ZM256.281 354V353.625C257.181 352.425 257.856 351.375 258.306 350.475C258.756 349.575 259.081 348.475 259.281 347.175C259.481 345.875 259.581 343.975 259.581 341.475V309.75C259.581 307.25 259.481 305.35 259.281 304.05C259.081 302.7 258.756 301.6 258.306 300.75C257.856 299.85 257.181 298.8 256.281 297.6V297.225H263.106H276.456V341.475C276.456 343.975 276.556 345.875 276.756 347.175C277.006 348.475 277.381 349.575 277.881 350.475C278.381 351.375 279.131 352.425 280.131 353.625V354H272.631H263.106H256.281ZM343.513 355.35C338.413 355.35 333.963 354.55 330.163 352.95C326.413 351.3 323.438 348.6 321.238 344.85C319.038 341.1 317.938 336.1 317.938 329.85V309.75C317.938 307.25 317.838 305.35 317.638 304.05C317.438 302.7 317.113 301.6 316.663 300.75C316.213 299.85 315.538 298.8 314.638 297.6V297.225H321.463H331.363H338.263V297.6C337.363 298.8 336.663 299.85 336.163 300.75C335.713 301.6 335.388 302.7 335.188 304.05C335.038 305.35 334.963 307.25 334.963 309.75V330.3C334.963 334.1 335.313 337.2 336.013 339.6C336.763 342 337.938 343.775 339.538 344.925C341.188 346.025 343.338 346.575 345.988 346.575C349.988 346.575 352.963 345.275 354.913 342.675C356.913 340.025 357.913 335.9 357.913 330.3V309.75C357.913 307.25 357.813 305.35 357.613 304.05C357.463 302.7 357.138 301.6 356.638 300.75C356.188 299.85 355.513 298.8 354.613 297.6V297.225H361.513H363.913H370.813V297.6C369.913 298.8 369.213 299.85 368.713 300.75C368.263 301.6 367.938 302.7 367.738 304.05C367.538 305.35 367.438 307.25 367.438 309.75V329.85C367.438 338.65 365.388 345.1 361.288 349.2C357.238 353.3 351.313 355.35 343.513 355.35ZM387.79 347.025L401.665 346.95C404.315 346.95 406.49 346.825 408.19 346.575C409.89 346.325 411.715 345.825 413.665 345.075C415.665 344.325 418.365 343.2 421.765 341.7V354H387.79V347.025ZM376.765 354V353.625C377.665 352.425 378.34 351.375 378.79 350.475C379.24 349.575 379.565 348.475 379.765 347.175C379.965 345.875 380.065 343.975 380.065 341.475V309.75C380.065 307.25 379.965 305.35 379.765 304.05C379.565 302.7 379.24 301.6 378.79 300.75C378.34 299.85 377.665 298.8 376.765 297.6V297.225H383.59H397.09V354H383.59H376.765ZM416.065 328.275C413.015 328.125 410.065 328.025 407.215 327.975C404.365 327.925 401.765 327.9 399.415 327.9H391.015V321.45H399.415C404.665 321.45 410.215 321.3 416.065 321V328.275ZM420.19 309.375C419.44 309.125 418.465 308.725 417.265 308.175C414.765 307.075 412.74 306.275 411.19 305.775C409.64 305.275 408.14 304.9 406.69 304.65C405.29 304.35 403.765 304.2 402.115 304.2H387.64V297.225H420.19V309.375ZM451.454 355.35C446.654 355.35 442.379 354.625 438.629 353.175C434.929 351.675 431.904 349.475 429.554 346.575C427.254 343.675 425.829 340.15 425.279 336H439.979C440.479 339.85 441.654 342.95 443.504 345.3C445.354 347.6 448.029 348.775 451.529 348.825C453.729 348.825 455.454 348.325 456.704 347.325C458.004 346.325 458.654 344.9 458.654 343.05C458.704 341.6 458.279 340.3 457.379 339.15C456.529 338 455.254 336.9 453.554 335.85C451.854 334.75 449.354 333.4 446.054 331.8L444.854 331.2L444.029 330.825C440.329 328.925 437.329 327.175 435.029 325.575C432.729 323.925 430.904 322.025 429.554 319.875C428.254 317.725 427.604 315.275 427.604 312.525C427.604 309.075 428.529 306.125 430.379 303.675C432.279 301.175 434.854 299.3 438.104 298.05C441.404 296.8 445.129 296.175 449.279 296.175C453.529 296.175 457.379 296.825 460.829 298.125C464.279 299.425 467.154 301.4 469.454 304.05C471.804 306.65 473.379 309.875 474.179 313.725H459.554C459.404 311.725 458.929 309.9 458.129 308.25C457.329 306.6 456.179 305.275 454.679 304.275C453.229 303.225 451.504 302.7 449.504 302.7C447.404 302.65 445.779 303.125 444.629 304.125C443.479 305.075 442.879 306.4 442.829 308.1C442.829 309.65 443.329 311.05 444.329 312.3C445.329 313.5 446.679 314.625 448.379 315.675C450.129 316.725 452.604 318 455.804 319.5L456.404 319.8L457.004 320.1C460.854 322.05 463.929 323.825 466.229 325.425C468.579 326.975 470.454 328.85 471.854 331.05C473.254 333.2 473.954 335.75 473.954 338.7C473.954 342.1 472.979 345.075 471.029 347.625C469.129 350.125 466.479 352.05 463.079 353.4C459.679 354.7 455.804 355.35 451.454 355.35Z" fill="#F8F8F8"/>
</svg>
