<svg width="540" height="445" viewBox="0 0 540 445" fill="none" xmlns="http://www.w3.org/2000/svg">
<rect width="540" height="445" fill="white"/>
<rect width="540" height="445" fill="#9CB6BB"/>
<path d="M93.681 170.728H56.189V105.663L63.287 105.572V168.453H93.681V170.728ZM98.4002 147.705C98.4002 143.216 99.5529 139.06 101.858 135.238C104.164 131.355 107.258 128.292 111.14 126.047C115.084 123.802 119.33 122.68 123.88 122.68C127.217 122.68 130.281 123.408 133.071 124.864C135.923 126.259 138.167 128.201 139.805 130.688C141.504 133.115 142.353 135.784 142.353 138.696C142.353 139.667 142.171 140.88 141.807 142.336H105.316V143.61C105.316 148.099 106.135 152.103 107.773 155.622C109.411 159.08 111.717 161.81 114.689 163.812C117.662 165.753 121.059 166.724 124.881 166.724C134.891 166.724 141.959 160.566 146.084 148.251L147.904 149.07C145.356 156.35 141.868 161.931 137.439 165.814C133.071 169.697 127.915 171.638 121.969 171.638C117.541 171.638 113.537 170.607 109.957 168.544C106.378 166.481 103.557 163.63 101.494 159.99C99.4315 156.289 98.4002 152.194 98.4002 147.705ZM131.342 140.061C132.556 140.061 133.405 139.788 133.89 139.242C134.436 138.696 134.709 137.847 134.709 136.694C134.709 132.933 133.678 130.051 131.615 128.049C129.613 125.986 126.732 124.955 122.97 124.955C120.665 124.955 118.269 125.531 115.781 126.684C113.294 127.837 111.11 129.566 109.229 131.871C107.349 134.116 106.135 136.846 105.589 140.061H131.342ZM179.003 170.728V143.246L179.094 123.499L185.555 123.59V142.791L184.463 155.258H184.827C185.98 147.432 187.648 141.092 189.832 136.239C192.016 131.386 194.443 127.897 197.112 125.774C199.842 123.651 202.603 122.589 205.393 122.589C209.519 122.589 212.582 124.288 214.584 127.685C216.647 131.022 217.769 136.057 217.951 142.791H218.315C219.407 136.603 221.136 131.719 223.502 128.14C225.868 124.5 228.993 122.68 232.875 122.68C235.909 122.68 238.366 123.499 240.246 125.137C242.188 126.775 243.704 129.08 244.796 132.053C245.949 134.965 246.95 138.757 247.799 143.428L252.804 170.728H246.161L241.338 144.793C240.186 138.362 238.79 133.721 237.152 130.87C235.575 127.958 233.634 126.502 231.328 126.502C227.749 126.502 224.807 129.414 222.501 135.238C220.196 141.001 218.77 148.524 218.224 157.806L218.133 170.728H211.672V146.067C211.672 139.94 211.126 135.147 210.034 131.689C209.003 128.17 206.667 126.411 203.027 126.411C200.176 126.411 197.537 127.928 195.11 130.961C192.744 133.994 190.742 138.362 189.104 144.065C187.466 149.768 186.283 156.502 185.555 164.267V170.728H179.003ZM265.152 170.728V123.59V170.728ZM265.152 170.728V123.59H271.704V170.728H265.152ZM264.242 110.668C264.242 109.333 264.667 108.211 265.516 107.301C266.365 106.391 267.427 105.936 268.701 105.936C269.975 105.936 271.037 106.391 271.886 107.301C272.796 108.211 273.251 109.333 273.251 110.668C273.251 112.003 272.826 113.125 271.977 114.035C271.128 114.884 270.036 115.309 268.701 115.309C267.488 115.309 266.426 114.854 265.516 113.944C264.667 113.034 264.242 111.942 264.242 110.668ZM283.777 147.705C283.777 143.216 284.93 139.06 287.235 135.238C289.54 131.355 292.634 128.292 296.517 126.047C300.46 123.802 304.707 122.68 309.257 122.68C312.594 122.68 315.657 123.408 318.448 124.864C321.299 126.259 323.544 128.201 325.182 130.688C326.881 133.115 327.73 135.784 327.73 138.696C327.73 139.667 327.548 140.88 327.184 142.336H290.693V143.61C290.693 148.099 291.512 152.103 293.15 155.622C294.788 159.08 297.093 161.81 300.066 163.812C303.039 165.753 306.436 166.724 310.258 166.724C320.268 166.724 327.336 160.566 331.461 148.251L333.281 149.07C330.733 156.35 327.245 161.931 322.816 165.814C318.448 169.697 313.291 171.638 307.346 171.638C302.917 171.638 298.913 170.607 295.334 168.544C291.755 166.481 288.934 163.63 286.871 159.99C284.808 156.289 283.777 152.194 283.777 147.705ZM316.719 140.061C317.932 140.061 318.782 139.788 319.267 139.242C319.813 138.696 320.086 137.847 320.086 136.694C320.086 132.933 319.055 130.051 316.992 128.049C314.99 125.986 312.108 124.955 308.347 124.955C306.042 124.955 303.645 125.531 301.158 126.684C298.671 127.837 296.487 129.566 294.606 131.871C292.725 134.116 291.512 136.846 290.966 140.061H316.719ZM338.477 123.499H345.029V151.254C345.029 162.113 348.882 167.543 356.586 167.543C360.348 167.543 363.563 165.602 366.232 161.719C368.902 157.776 370.904 153.347 372.238 148.433C373.573 143.519 374.24 139.879 374.24 137.513V123.499H380.792V170.728H374.24V152.801L375.423 145.248H375.059C373.3 152.528 370.691 158.746 367.233 163.903C363.836 169.06 359.377 171.638 353.856 171.638C348.7 171.638 344.847 169.97 342.299 166.633C339.751 163.296 338.477 158.261 338.477 151.527V123.499ZM391.306 170.455H388.485L407.959 147.432L391.215 123.499H399.132L413.237 143.337L428.525 123.59H431.255L414.511 145.066L432.802 170.728L424.157 170.637L409.233 149.252L391.306 170.455ZM468.75 145.703H435.444V143.428H468.75V145.703ZM52.367 232.705C52.367 228.216 53.5197 224.06 55.825 220.238C58.1303 216.355 61.2243 213.292 65.107 211.047C69.0503 208.802 73.297 207.68 77.847 207.68C81.1837 207.68 84.2473 208.408 87.038 209.864C89.8893 211.259 92.134 213.201 93.772 215.688C95.4707 218.115 96.32 220.784 96.32 223.696C96.32 224.667 96.138 225.88 95.774 227.336H59.283V228.61C59.283 233.099 60.102 237.103 61.74 240.622C63.378 244.08 65.6833 246.81 68.656 248.812C71.6287 250.753 75.026 251.724 78.848 251.724C88.858 251.724 95.9257 245.566 100.051 233.251L101.871 234.07C99.323 241.35 95.8347 246.931 91.406 250.814C87.038 254.697 81.8813 256.638 75.936 256.638C71.5073 256.638 67.5033 255.607 63.924 253.544C60.3447 251.481 57.5237 248.63 55.461 244.99C53.3983 241.289 52.367 237.194 52.367 232.705ZM85.309 225.061C86.5223 225.061 87.3717 224.788 87.857 224.242C88.403 223.696 88.676 222.847 88.676 221.694C88.676 217.933 87.6447 215.051 85.582 213.049C83.58 210.986 80.6983 209.955 76.937 209.955C74.6317 209.955 72.2353 210.531 69.748 211.684C67.2607 212.837 65.0767 214.566 63.196 216.871C61.3153 219.116 60.102 221.846 59.556 225.061H85.309ZM63.287 200.946C67.9583 196.639 71.568 192.483 74.116 188.479H78.211C80.759 192.483 84.3687 196.639 89.04 200.946C89.222 201.128 89.313 201.34 89.313 201.583C89.313 201.947 89.1917 202.22 88.949 202.402C88.7063 202.584 88.4333 202.584 88.13 202.402H88.221C83.853 200.461 79.8187 197.791 76.118 194.394C72.5387 197.791 68.5347 200.461 64.106 202.402C64.0453 202.463 63.924 202.493 63.742 202.493C63.2567 202.493 63.014 202.22 63.014 201.674C63.014 201.371 63.105 201.128 63.287 200.946ZM104.701 208.59C108.099 208.59 110.677 207.407 112.436 205.041C114.256 202.675 115.5 199.065 116.167 194.212L117.805 194.394V208.59H135.186V210.865H117.714V244.171C117.714 247.022 118.2 249.267 119.17 250.905C120.141 252.543 121.415 253.362 122.992 253.362C124.448 253.362 125.813 252.786 127.087 251.633C128.422 250.48 129.635 248.782 130.727 246.537L132.547 247.538C130.909 250.693 129.12 253.028 127.178 254.545C125.298 256.001 123.174 256.729 120.808 256.729C117.593 256.729 115.166 255.698 113.528 253.635C111.89 251.572 111.071 248.509 111.071 244.444V210.865H104.792L104.61 208.59H104.701ZM140.524 255.728V225.88V255.728ZM140.524 225.88L140.615 208.499L147.076 208.59V225.698L145.711 242.169H146.075C147.167 235.86 148.866 230.096 151.171 224.879C153.537 219.601 156.237 215.445 159.27 212.412C162.303 209.379 165.397 207.862 168.552 207.862C170.979 207.862 173.041 208.529 174.74 209.864C176.439 211.138 177.713 213.049 178.562 215.597L176.742 216.507C175.953 214.262 174.892 212.655 173.557 211.684C172.283 210.653 170.615 210.137 168.552 210.137C165.215 210.137 161.97 212.048 158.815 215.87C155.721 219.692 153.112 224.636 150.989 230.703C148.866 236.77 147.561 242.958 147.076 249.267L146.985 255.728H140.524V225.88ZM178.292 232.705C178.292 228.216 179.444 224.06 181.75 220.238C184.055 216.355 187.149 213.292 191.032 211.047C194.975 208.802 199.222 207.68 203.772 207.68C207.108 207.68 210.172 208.408 212.963 209.864C215.814 211.259 218.059 213.201 219.697 215.688C221.395 218.115 222.245 220.784 222.245 223.696C222.245 224.667 222.063 225.88 221.699 227.336H185.208V228.61C185.208 233.099 186.027 237.103 187.665 240.622C189.303 244.08 191.608 246.81 194.581 248.812C197.553 250.753 200.951 251.724 204.773 251.724C214.783 251.724 221.85 245.566 225.976 233.251L227.796 234.07C225.248 241.35 221.759 246.931 217.331 250.814C212.963 254.697 207.806 256.638 201.861 256.638C197.432 256.638 193.428 255.607 189.849 253.544C186.269 251.481 183.448 248.63 181.386 244.99C179.323 241.289 178.292 237.194 178.292 232.705ZM211.234 225.061C212.447 225.061 213.296 224.788 213.782 224.242C214.328 223.696 214.601 222.847 214.601 221.694C214.601 217.933 213.569 215.051 211.507 213.049C209.505 210.986 206.623 209.955 202.862 209.955C200.556 209.955 198.16 210.531 195.673 211.684C193.185 212.837 191.001 214.566 189.121 216.871C187.24 219.116 186.027 221.846 185.481 225.061H211.234ZM52.367 317.705C52.367 313.216 53.5197 309.06 55.825 305.238C58.1303 301.355 61.2243 298.292 65.107 296.047C69.0503 293.802 73.297 292.68 77.847 292.68C81.1837 292.68 84.2473 293.408 87.038 294.864C89.8893 296.259 92.134 298.201 93.772 300.688C95.4707 303.115 96.32 305.784 96.32 308.696C96.32 309.667 96.138 310.88 95.774 312.336H59.283V313.61C59.283 318.099 60.102 322.103 61.74 325.622C63.378 329.08 65.6833 331.81 68.656 333.812C71.6287 335.753 75.026 336.724 78.848 336.724C88.858 336.724 95.9257 330.566 100.051 318.251L101.871 319.07C99.323 326.35 95.8347 331.931 91.406 335.814C87.038 339.697 81.8813 341.638 75.936 341.638C71.5073 341.638 67.5033 340.607 63.924 338.544C60.3447 336.481 57.5237 333.63 55.461 329.99C53.3983 326.289 52.367 322.194 52.367 317.705ZM85.309 310.061C86.5223 310.061 87.3717 309.788 87.857 309.242C88.403 308.696 88.676 307.847 88.676 306.694C88.676 302.933 87.6447 300.051 85.582 298.049C83.58 295.986 80.6983 294.955 76.937 294.955C74.6317 294.955 72.2353 295.531 69.748 296.684C67.2607 297.837 65.0767 299.566 63.196 301.871C61.3153 304.116 60.102 306.846 59.556 310.061H85.309ZM108.887 340.728V293.499L115.439 293.59V310.516L114.256 327.351H114.62C115.894 319.464 117.714 312.943 120.08 307.786C122.507 302.629 125.207 298.868 128.179 296.502C131.152 294.075 134.185 292.862 137.279 292.862C140.252 292.862 142.739 293.56 144.741 294.955C146.804 296.29 148.503 298.443 149.837 301.416C151.172 304.389 152.294 308.423 153.204 313.519L158.118 340.728H151.384L146.288 312.336C145.257 306.755 143.831 302.69 142.011 300.142C140.252 297.533 137.886 296.229 134.913 296.229C131.941 296.229 129.12 297.837 126.45 301.052C123.781 304.207 121.476 308.635 119.534 314.338C117.654 320.041 116.349 326.532 115.621 333.812L115.257 340.728H108.887ZM165.139 320.526C165.139 315.551 166.231 310.941 168.415 306.694C170.66 302.447 173.663 299.05 177.424 296.502C181.186 293.954 185.25 292.68 189.618 292.68C191.256 292.68 192.712 292.862 193.986 293.226C195.26 293.529 196.716 294.015 198.354 294.682C199.75 295.228 200.811 295.622 201.539 295.865C202.328 296.047 203.177 296.138 204.087 296.138C205.301 296.138 206.362 295.956 207.272 295.592C208.243 295.167 208.88 294.652 209.183 294.045L210.912 294.409L210.821 331.628C210.821 340.182 209.335 347.25 206.362 352.831C203.39 358.412 199.75 362.447 195.442 364.934C191.135 367.482 186.828 368.756 182.52 368.756C179.244 368.756 176.332 368.089 173.784 366.754C171.236 365.419 169.143 363.448 167.505 360.839C167.323 360.596 167.232 360.323 167.232 360.02C167.232 359.717 167.323 359.444 167.505 359.201C167.687 359.019 167.93 358.928 168.233 358.928C168.597 358.928 168.901 359.11 169.143 359.474C171.995 364.145 176.454 366.481 182.52 366.481C186.949 366.481 190.801 365.086 194.077 362.295C197.353 359.504 199.871 355.5 201.63 350.283C203.39 345.066 204.269 338.938 204.269 331.901V323.347L205.179 311.79H204.815C203.723 317.978 201.964 323.347 199.537 327.897C197.111 332.386 194.32 335.814 191.165 338.18C188.071 340.485 184.977 341.638 181.883 341.638C176.545 341.638 172.419 339.788 169.507 336.087C166.595 332.386 165.139 327.199 165.139 320.526ZM172.419 318.706C172.419 324.894 173.39 329.687 175.331 333.084C177.273 336.481 180.003 338.18 183.521 338.18C186.312 338.18 189.194 336.906 192.166 334.358C195.139 331.749 197.717 327.776 199.901 322.437C202.085 317.038 203.39 310.395 203.814 302.508C203.45 302.144 202.51 301.234 200.993 299.778C199.477 298.261 197.748 297.078 195.806 296.229C193.865 295.38 191.711 294.955 189.345 294.955C186.009 294.955 183.066 295.956 180.518 297.958C177.97 299.899 175.968 302.66 174.512 306.239C173.117 309.818 172.419 313.974 172.419 318.706ZM215.406 318.706C218.5 310.395 222.231 303.964 226.599 299.414C231.027 294.864 236.851 292.589 244.071 292.589C248.378 292.589 251.988 293.62 254.9 295.683C257.872 297.746 259.905 301.78 260.997 307.786L266.912 340.728H260.269L256.538 319.798C255.81 323.681 254.354 327.321 252.17 330.718C249.986 334.055 247.347 336.754 244.253 338.817C241.219 340.819 238.095 341.82 234.88 341.82C230.876 341.82 227.6 340.789 225.052 338.726C222.564 336.603 221.321 333.873 221.321 330.536C221.321 326.957 222.686 323.802 225.416 321.072C228.146 318.342 232.028 316.188 237.064 314.611C242.16 312.973 248.166 312.002 255.082 311.699L254.263 307.786C253.413 303.782 251.988 300.658 249.986 298.413C248.044 296.108 245.739 294.955 243.07 294.955C236.578 294.955 231.361 297.109 227.418 301.416C223.474 305.723 220.107 311.699 217.317 319.343L215.406 318.706ZM228.601 328.716C228.601 331.325 229.48 333.478 231.24 335.177C233.06 336.815 235.365 337.634 238.156 337.634C240.946 337.634 243.676 336.512 246.346 334.267C249.015 331.962 251.169 328.989 252.807 325.349C254.505 321.648 255.385 317.857 255.446 313.974C246.952 314.217 240.34 315.612 235.608 318.16C230.936 320.708 228.601 324.227 228.601 328.716ZM272.313 320.526C272.313 315.551 273.405 310.941 275.589 306.694C277.834 302.447 280.837 299.05 284.598 296.502C288.36 293.954 292.424 292.68 296.792 292.68C298.43 292.68 299.886 292.862 301.16 293.226C302.434 293.529 303.89 294.015 305.528 294.682C306.924 295.228 307.985 295.622 308.713 295.865C309.502 296.047 310.351 296.138 311.261 296.138C312.475 296.138 313.536 295.956 314.446 295.592C315.417 295.167 316.054 294.652 316.357 294.045L318.086 294.409L317.995 331.628C317.995 340.182 316.509 347.25 313.536 352.831C310.564 358.412 306.924 362.447 302.616 364.934C298.309 367.482 294.002 368.756 289.694 368.756C286.418 368.756 283.506 368.089 280.958 366.754C278.41 365.419 276.317 363.448 274.679 360.839C274.497 360.596 274.406 360.323 274.406 360.02C274.406 359.717 274.497 359.444 274.679 359.201C274.861 359.019 275.104 358.928 275.407 358.928C275.771 358.928 276.075 359.11 276.317 359.474C279.169 364.145 283.628 366.481 289.694 366.481C294.123 366.481 297.975 365.086 301.251 362.295C304.527 359.504 307.045 355.5 308.804 350.283C310.564 345.066 311.443 338.938 311.443 331.901V323.347L312.353 311.79H311.989C310.897 317.978 309.138 323.347 306.711 327.897C304.285 332.386 301.494 335.814 298.339 338.18C295.245 340.485 292.151 341.638 289.057 341.638C283.719 341.638 279.593 339.788 276.681 336.087C273.769 332.386 272.313 327.199 272.313 320.526ZM279.593 318.706C279.593 324.894 280.564 329.687 282.505 333.084C284.447 336.481 287.177 338.18 290.695 338.18C293.486 338.18 296.368 336.906 299.34 334.358C302.313 331.749 304.891 327.776 307.075 322.437C309.259 317.038 310.564 310.395 310.988 302.508C310.624 302.144 309.684 301.234 308.167 299.778C306.651 298.261 304.922 297.078 302.98 296.229C301.039 295.38 298.885 294.955 296.519 294.955C293.183 294.955 290.24 295.956 287.692 297.958C285.144 299.899 283.142 302.66 281.686 306.239C280.291 309.818 279.593 313.974 279.593 318.706ZM327.766 317.705C327.766 313.216 328.919 309.06 331.224 305.238C333.53 301.355 336.624 298.292 340.506 296.047C344.45 293.802 348.696 292.68 353.246 292.68C356.583 292.68 359.647 293.408 362.437 294.864C365.289 296.259 367.533 298.201 369.171 300.688C370.87 303.115 371.719 305.784 371.719 308.696C371.719 309.667 371.537 310.88 371.173 312.336H334.682V313.61C334.682 318.099 335.501 322.103 337.139 325.622C338.777 329.08 341.083 331.81 344.055 333.812C347.028 335.753 350.425 336.724 354.247 336.724C364.257 336.724 371.325 330.566 375.45 318.251L377.27 319.07C374.722 326.35 371.234 331.931 366.805 335.814C362.437 339.697 357.281 341.638 351.335 341.638C346.907 341.638 342.903 340.607 339.323 338.544C335.744 336.481 332.923 333.63 330.86 329.99C328.798 326.289 327.766 322.194 327.766 317.705ZM360.708 310.061C361.922 310.061 362.771 309.788 363.256 309.242C363.802 308.696 364.075 307.847 364.075 306.694C364.075 302.933 363.044 300.051 360.981 298.049C358.979 295.986 356.098 294.955 352.336 294.955C350.031 294.955 347.635 295.531 345.147 296.684C342.66 297.837 340.476 299.566 338.595 301.871C336.715 304.116 335.501 306.846 334.955 310.061H360.708ZM345.056 286.128C346.573 284.49 348.181 282.579 349.879 280.395C352.124 277.665 353.853 275.754 355.066 274.662C356.28 273.509 357.493 272.933 358.706 272.933C359.495 272.933 360.102 273.176 360.526 273.661C360.951 274.146 361.163 274.814 361.163 275.663C361.163 276.694 360.223 277.938 358.342 279.394C356.522 280.789 353.762 282.64 350.061 284.945L345.966 287.584L345.056 286.128Z" fill="#F8F8F8"/>
</svg>
