<svg width="540" height="445" viewBox="0 0 540 445" fill="none" xmlns="http://www.w3.org/2000/svg">
<rect width="540" height="445" fill="white"/>
<rect width="540" height="445" fill="#FE0198"/>
<path d="M70.175 156.55C66.3983 156.55 63.19 155.872 60.55 154.515C57.91 153.158 55.8933 151.27 54.5 148.85C53.1433 146.43 52.465 143.607 52.465 140.38V115.905H63.575V140.435C63.575 141.792 63.8317 142.947 64.345 143.9C64.895 144.817 65.665 145.513 66.655 145.99C67.645 146.467 68.855 146.705 70.285 146.705C71.715 146.705 72.925 146.467 73.915 145.99C74.905 145.513 75.6567 144.817 76.17 143.9C76.6833 142.947 76.94 141.792 76.94 140.435V115.905H88.05V140.38C88.05 143.827 87.2983 146.76 85.795 149.18C84.3283 151.563 82.2567 153.397 79.58 154.68C76.9033 155.927 73.7683 156.55 70.175 156.55ZM95.3341 156V115.905H108.479L121.514 140.49H121.954L121.569 128.28V115.905H132.294V156H119.919L106.884 132.295H106.444L106.719 143.02V156H95.3341ZM139.86 156V115.905H170.11V125.365H148.715L151.025 123.055V133.615L148.715 131.305H167.36V140.16H148.715L151.025 137.85V148.85L148.715 146.54H170.275V156H139.86ZM197.452 156L184.087 115.905H196.572L202.512 137.465L204.712 145.385H205.152L207.297 137.52L213.292 115.905H225.777L212.467 156H197.452ZM247.068 156.55C243.988 156.55 241.202 156.11 238.708 155.23C236.215 154.313 234.052 152.993 232.218 151.27C230.422 149.51 229.028 147.347 228.038 144.78C227.085 142.213 226.608 139.262 226.608 135.925C226.608 132.588 227.085 129.655 228.038 127.125C229.028 124.558 230.422 122.413 232.218 120.69C234.052 118.93 236.215 117.61 238.708 116.73C241.202 115.813 243.988 115.355 247.068 115.355C250.148 115.355 252.935 115.813 255.428 116.73C257.958 117.61 260.122 118.93 261.918 120.69C263.752 122.413 265.145 124.558 266.098 127.125C267.088 129.655 267.583 132.588 267.583 135.925C267.583 139.262 267.088 142.213 266.098 144.78C265.145 147.347 263.752 149.51 261.918 151.27C260.122 152.993 257.958 154.313 255.428 155.23C252.935 156.11 250.148 156.55 247.068 156.55ZM247.068 147.09C248.902 147.09 250.497 146.705 251.853 145.935C253.21 145.165 254.255 143.973 254.988 142.36C255.758 140.71 256.143 138.565 256.143 135.925C256.143 133.945 255.923 132.258 255.483 130.865C255.043 129.472 254.42 128.335 253.613 127.455C252.843 126.538 251.89 125.878 250.753 125.475C249.653 125.035 248.425 124.815 247.068 124.815C245.272 124.815 243.695 125.2 242.338 125.97C240.982 126.703 239.918 127.895 239.148 129.545C238.415 131.158 238.048 133.285 238.048 135.925C238.048 137.905 238.268 139.61 238.708 141.04C239.148 142.47 239.753 143.625 240.523 144.505C241.33 145.385 242.283 146.045 243.383 146.485C244.483 146.888 245.712 147.09 247.068 147.09ZM273.064 156V115.905H284.229V147.695L282.854 146.155H300.839V156H273.064ZM322.371 156.55C319.291 156.55 316.504 156.11 314.011 155.23C311.518 154.313 309.354 152.993 307.521 151.27C305.724 149.51 304.331 147.347 303.341 144.78C302.388 142.213 301.911 139.262 301.911 135.925C301.911 132.588 302.388 129.655 303.341 127.125C304.331 124.558 305.724 122.413 307.521 120.69C309.354 118.93 311.518 117.61 314.011 116.73C316.504 115.813 319.291 115.355 322.371 115.355C325.451 115.355 328.238 115.813 330.731 116.73C333.261 117.61 335.424 118.93 337.221 120.69C339.054 122.413 340.448 124.558 341.401 127.125C342.391 129.655 342.886 132.588 342.886 135.925C342.886 139.262 342.391 142.213 341.401 144.78C340.448 147.347 339.054 149.51 337.221 151.27C335.424 152.993 333.261 154.313 330.731 155.23C328.238 156.11 325.451 156.55 322.371 156.55ZM322.371 147.09C324.204 147.09 325.799 146.705 327.156 145.935C328.513 145.165 329.558 143.973 330.291 142.36C331.061 140.71 331.446 138.565 331.446 135.925C331.446 133.945 331.226 132.258 330.786 130.865C330.346 129.472 329.723 128.335 328.916 127.455C328.146 126.538 327.193 125.878 326.056 125.475C324.956 125.035 323.728 124.815 322.371 124.815C320.574 124.815 318.998 125.2 317.641 125.97C316.284 126.703 315.221 127.895 314.451 129.545C313.718 131.158 313.351 133.285 313.351 135.925C313.351 137.905 313.571 139.61 314.011 141.04C314.451 142.47 315.056 143.625 315.826 144.505C316.633 145.385 317.586 146.045 318.686 146.485C319.786 146.888 321.014 147.09 322.371 147.09ZM348.366 156V115.905H361.511L374.546 140.49H374.986L374.601 128.28V115.905H385.326V156H372.951L359.916 132.295H359.476L359.751 143.02V156H348.366ZM400.593 156V125.475H389.538V115.905H423.143V125.475H411.758V156H400.593ZM427.375 156V115.905H457.625V125.365H436.23L438.54 123.055V133.615L436.23 131.305H454.875V140.16H436.23L438.54 137.85V148.85L436.23 146.54H457.79V156H427.375ZM438.1 112.77L441.015 104.575H451.355L446.02 112.77H438.1ZM52.795 214V173.905H70.78C74.8867 173.905 78.3333 174.748 81.12 176.435C83.9067 178.122 86.015 180.468 87.445 183.475C88.875 186.482 89.59 189.983 89.59 193.98C89.59 196.95 89.1867 199.663 88.38 202.12C87.5733 204.577 86.3633 206.703 84.75 208.5C83.1733 210.26 81.2117 211.617 78.865 212.57C76.555 213.523 73.86 214 70.78 214H52.795ZM63.96 204.595H68.855C70.1383 204.595 71.33 204.467 72.43 204.21C73.5667 203.917 74.5567 203.403 75.4 202.67C76.28 201.9 76.9583 200.8 77.435 199.37C77.9483 197.94 78.205 196.07 78.205 193.76C78.205 190.863 77.7833 188.663 76.94 187.16C76.1333 185.657 75.0333 184.648 73.64 184.135C72.2467 183.585 70.6517 183.31 68.855 183.31H63.96V204.595ZM92.1505 192.66V187.6H93.5255C94.9188 187.6 95.9088 187.307 96.4955 186.72C97.1188 186.133 97.4305 185.308 97.4305 184.245V182.925H92.9755V173.905H102.821V184.63C102.821 187.673 102.087 189.782 100.621 190.955C99.1538 192.092 97.2288 192.66 94.8455 192.66H92.1505ZM109.084 214V173.905H139.334V183.365H117.939L120.249 181.055V191.615L117.939 189.305H136.584V198.16H117.939L120.249 195.85V206.85L117.939 204.54H139.499V214H109.084ZM112.384 170.77L118.709 162.575H128.829L135.154 170.77H126.464L123.769 167.14L121.074 170.77H112.384ZM153.254 214V183.475H142.199V173.905H175.804V183.475H164.419V214H153.254ZM180.036 214V173.905H200.936C203.43 173.905 205.593 174.162 207.426 174.675C209.296 175.188 210.836 175.958 212.046 176.985C213.256 178.012 214.155 179.258 214.741 180.725C215.365 182.192 215.676 183.897 215.676 185.84C215.676 188.187 215.035 190.24 213.751 192C212.505 193.723 210.855 194.823 208.801 195.3V195.685C210.708 196.088 212.156 196.913 213.146 198.16C214.136 199.37 214.631 201.093 214.631 203.33V209.16C214.631 209.93 214.65 210.737 214.686 211.58C214.76 212.387 214.98 213.193 215.346 214H204.126C203.906 213.56 203.741 212.918 203.631 212.075C203.521 211.195 203.466 210.242 203.466 209.215V205.255C203.466 204.302 203.32 203.495 203.026 202.835C202.733 202.175 202.22 201.662 201.486 201.295C200.753 200.928 199.708 200.745 198.351 200.745H191.201V214H180.036ZM191.201 192H199.286C201.083 192 202.348 191.56 203.081 190.68C203.851 189.8 204.236 188.7 204.236 187.38C204.236 186.28 204.016 185.418 203.576 184.795C203.173 184.172 202.605 183.732 201.871 183.475C201.138 183.182 200.276 183.035 199.286 183.035H191.201V192ZM221.125 214V173.905H251.375V183.365H229.98L232.29 181.055V191.615L229.98 189.305H248.625V198.16H229.98L232.29 195.85V206.85L229.98 204.54H251.54V214H221.125ZM48.89 272L61.375 231.905H77.27L89.755 272H78.15L76.06 264.85H62.585L60.495 272H48.89ZM65.06 256.38H73.585L71.22 248.295L69.515 241.915H69.13L67.425 248.295L65.06 256.38ZM110.215 272.55C107.135 272.55 104.33 272.11 101.8 271.23C99.3071 270.313 97.1438 268.993 95.3104 267.27C93.4771 265.51 92.0654 263.347 91.0754 260.78C90.1221 258.213 89.6454 255.262 89.6454 251.925C89.6454 248.588 90.1221 245.655 91.0754 243.125C92.0654 240.558 93.4771 238.413 95.3104 236.69C97.1438 234.93 99.3071 233.61 101.8 232.73C104.33 231.813 107.135 231.355 110.215 231.355C113.772 231.355 116.925 231.978 119.675 233.225C122.462 234.435 124.699 236.14 126.385 238.34C128.072 240.54 129.062 243.107 129.355 246.04H118.08C117.787 245.013 117.274 244.115 116.54 243.345C115.807 242.538 114.909 241.915 113.845 241.475C112.782 241.035 111.572 240.815 110.215 240.815C108.382 240.815 106.769 241.2 105.375 241.97C104.019 242.703 102.955 243.895 102.185 245.545C101.452 247.158 101.085 249.285 101.085 251.925C101.085 253.905 101.305 255.61 101.745 257.04C102.185 258.47 102.79 259.625 103.56 260.505C104.367 261.385 105.339 262.045 106.475 262.485C107.612 262.888 108.859 263.09 110.215 263.09C111.499 263.09 112.672 262.87 113.735 262.43C114.835 261.99 115.77 261.385 116.54 260.615C117.31 259.808 117.824 258.873 118.08 257.81H129.355C129.062 260.743 128.054 263.328 126.33 265.565C124.607 267.765 122.352 269.488 119.565 270.735C116.815 271.945 113.699 272.55 110.215 272.55ZM141.437 272V241.475H130.382V231.905H163.987V241.475H152.602V272H141.437ZM168.22 272V231.905H179.385V272H168.22ZM196.7 272L183.335 231.905H195.82L201.76 253.465L203.96 261.385H204.4L206.545 253.52L212.54 231.905H225.025L211.715 272H196.7ZM228.967 272V231.905H259.217V241.365H237.822L240.132 239.055V249.615L237.822 247.305H256.467V256.16H237.822L240.132 253.85V264.85L237.822 262.54H259.382V272H228.967ZM265.651 272V231.905H282.481L287.816 253.685H288.256L293.426 231.905H310.256V272H299.476V259.075L299.586 243.51H299.201L292.326 272H283.746L276.871 243.51H276.376L276.541 259.185V272H265.651ZM317.858 272V231.905H348.108V241.365H326.713L329.023 239.055V249.615L326.713 247.305H345.358V256.16H326.713L329.023 253.85V264.85L326.713 262.54H348.273V272H317.858ZM354.543 272V231.905H367.688L380.723 256.49H381.163L380.778 244.28V231.905H391.503V272H379.128L366.093 248.295H365.653L365.928 259.02V272H354.543ZM406.769 272V241.475H395.714V231.905H429.319V241.475H417.934V272H406.769ZM71.275 330.55C68.195 330.55 65.39 330.11 62.86 329.23C60.3667 328.313 58.2033 326.993 56.37 325.27C54.5367 323.51 53.125 321.347 52.135 318.78C51.1817 316.213 50.705 313.262 50.705 309.925C50.705 306.588 51.1817 303.655 52.135 301.125C53.125 298.558 54.5367 296.413 56.37 294.69C58.2033 292.93 60.3667 291.61 62.86 290.73C65.39 289.813 68.195 289.355 71.275 289.355C74.8317 289.355 77.985 289.978 80.735 291.225C83.5217 292.435 85.7583 294.14 87.445 296.34C89.1317 298.54 90.1217 301.107 90.415 304.04H79.14C78.8467 303.013 78.3333 302.115 77.6 301.345C76.8667 300.538 75.9683 299.915 74.905 299.475C73.8417 299.035 72.6317 298.815 71.275 298.815C69.4417 298.815 67.8283 299.2 66.435 299.97C65.0783 300.703 64.015 301.895 63.245 303.545C62.5117 305.158 62.145 307.285 62.145 309.925C62.145 311.905 62.365 313.61 62.805 315.04C63.245 316.47 63.85 317.625 64.62 318.505C65.4267 319.385 66.3983 320.045 67.535 320.485C68.6717 320.888 69.9183 321.09 71.275 321.09C72.5583 321.09 73.7317 320.87 74.795 320.43C75.895 319.99 76.83 319.385 77.6 318.615C78.37 317.808 78.8833 316.873 79.14 315.81H90.415C90.1217 318.743 89.1133 321.328 87.39 323.565C85.6667 325.765 83.4117 327.488 80.625 328.735C77.875 329.945 74.7583 330.55 71.275 330.55ZM95.8712 330V289.905H107.036V330H95.8712ZM122.316 330V299.475H111.261V289.905H144.866V299.475H133.481V330H122.316ZM166.394 330.55C163.314 330.55 160.528 330.11 158.034 329.23C155.541 328.313 153.378 326.993 151.544 325.27C149.748 323.51 148.354 321.347 147.364 318.78C146.411 316.213 145.934 313.262 145.934 309.925C145.934 306.588 146.411 303.655 147.364 301.125C148.354 298.558 149.748 296.413 151.544 294.69C153.378 292.93 155.541 291.61 158.034 290.73C160.528 289.813 163.314 289.355 166.394 289.355C169.474 289.355 172.261 289.813 174.754 290.73C177.284 291.61 179.448 292.93 181.244 294.69C183.078 296.413 184.471 298.558 185.424 301.125C186.414 303.655 186.909 306.588 186.909 309.925C186.909 313.262 186.414 316.213 185.424 318.78C184.471 321.347 183.078 323.51 181.244 325.27C179.448 326.993 177.284 328.313 174.754 329.23C172.261 330.11 169.474 330.55 166.394 330.55ZM166.394 321.09C168.228 321.09 169.823 320.705 171.179 319.935C172.536 319.165 173.581 317.973 174.314 316.36C175.084 314.71 175.469 312.565 175.469 309.925C175.469 307.945 175.249 306.258 174.809 304.865C174.369 303.472 173.746 302.335 172.939 301.455C172.169 300.538 171.216 299.878 170.079 299.475C168.979 299.035 167.751 298.815 166.394 298.815C164.598 298.815 163.021 299.2 161.664 299.97C160.308 300.703 159.244 301.895 158.474 303.545C157.741 305.158 157.374 307.285 157.374 309.925C157.374 311.905 157.594 313.61 158.034 315.04C158.474 316.47 159.079 317.625 159.849 318.505C160.656 319.385 161.609 320.045 162.709 320.485C163.809 320.888 165.038 321.09 166.394 321.09ZM200.329 330V315.205L185.479 289.905H198.184L205.664 304.315H206.104L213.749 289.905H226.399L211.494 315.205V330H200.329ZM230.256 330V289.905H260.506V299.365H239.111L241.421 297.055V307.615L239.111 305.305H257.756V314.16H239.111L241.421 311.85V322.85L239.111 320.54H260.671V330H230.256ZM266.941 330V289.905H280.086L293.121 314.49H293.561L293.176 302.28V289.905H303.901V330H291.526L278.491 306.295H278.051L278.326 317.02V330H266.941ZM310.147 314.765C310.147 313.738 310.367 312.84 310.807 312.07C311.284 311.263 311.925 310.64 312.732 310.2C313.539 309.723 314.455 309.485 315.482 309.485C317.095 309.485 318.379 309.998 319.332 311.025C320.322 312.015 320.817 313.262 320.817 314.765C320.817 315.755 320.597 316.653 320.157 317.46C319.717 318.267 319.094 318.908 318.287 319.385C317.48 319.825 316.545 320.045 315.482 320.045C313.942 320.045 312.659 319.55 311.632 318.56C310.642 317.533 310.147 316.268 310.147 314.765ZM327.097 330V289.905H340.242L353.277 314.49H353.717L353.332 302.28V289.905H364.057V330H351.682L338.647 306.295H338.207L338.482 317.02V330H327.097ZM371.623 330V289.905H401.873V299.365H380.478L382.788 297.055V307.615L380.478 305.305H399.123V314.16H380.478L382.788 311.85V322.85L380.478 320.54H402.038V330H371.623ZM406.988 314.765C406.988 313.738 407.208 312.84 407.648 312.07C408.124 311.263 408.766 310.64 409.573 310.2C410.379 309.723 411.296 309.485 412.323 309.485C413.936 309.485 415.219 309.998 416.173 311.025C417.163 312.015 417.658 313.262 417.658 314.765C417.658 315.755 417.438 316.653 416.998 317.46C416.558 318.267 415.934 318.908 415.128 319.385C414.321 319.825 413.386 320.045 412.323 320.045C410.783 320.045 409.499 319.55 408.473 318.56C407.483 317.533 406.988 316.268 406.988 314.765ZM438.788 330.55C435.084 330.55 431.949 330 429.383 328.9C426.816 327.8 424.854 326.26 423.498 324.28C422.178 322.263 421.518 319.935 421.518 317.295H432.848C432.848 318.248 433.068 319.092 433.508 319.825C433.948 320.522 434.626 321.072 435.543 321.475C436.496 321.878 437.743 322.08 439.283 322.08C440.896 322.08 442.161 321.805 443.078 321.255C444.031 320.705 444.508 319.917 444.508 318.89C444.508 318.157 444.379 317.57 444.123 317.13C443.903 316.653 443.499 316.268 442.913 315.975C442.326 315.682 441.501 315.443 440.438 315.26C439.374 315.04 438.018 314.802 436.368 314.545C434.058 314.215 432.023 313.72 430.263 313.06C428.503 312.4 427.036 311.575 425.863 310.585C424.689 309.595 423.809 308.422 423.223 307.065C422.636 305.708 422.343 304.15 422.343 302.39C422.343 299.677 423.003 297.348 424.323 295.405C425.679 293.462 427.586 291.977 430.043 290.95C432.536 289.923 435.488 289.41 438.898 289.41C442.124 289.41 444.929 289.923 447.313 290.95C449.733 291.94 451.603 293.352 452.923 295.185C454.279 296.982 454.958 299.09 454.958 301.51H443.738C443.701 300.52 443.426 299.75 442.913 299.2C442.399 298.65 441.758 298.265 440.988 298.045C440.218 297.825 439.429 297.715 438.623 297.715C437.669 297.715 436.826 297.843 436.093 298.1C435.396 298.357 434.846 298.723 434.443 299.2C434.076 299.677 433.893 300.245 433.893 300.905C433.893 301.858 434.168 302.573 434.718 303.05C435.304 303.49 436.221 303.838 437.468 304.095C438.751 304.315 440.419 304.59 442.473 304.92C444.086 305.14 445.681 305.47 447.258 305.91C448.871 306.35 450.338 307.01 451.658 307.89C453.014 308.77 454.096 309.998 454.903 311.575C455.709 313.152 456.113 315.205 456.113 317.735C456.113 320.228 455.471 322.447 454.188 324.39C452.904 326.333 450.979 327.855 448.413 328.955C445.883 330.018 442.674 330.55 438.788 330.55Z" fill="white"/>
</svg>
