<svg width="540" height="445" viewBox="0 0 540 445" fill="none" xmlns="http://www.w3.org/2000/svg">
<rect width="540" height="445" fill="white"/>
<rect width="540" height="445" fill="#D7DFE0"/>
<path d="M55.643 164.952C56.4923 162.343 57.2507 159.735 57.918 157.126C58.646 154.457 59.4043 151.818 60.193 149.209C62.013 149.27 63.742 149.33 65.38 149.391C67.018 149.391 68.7773 149.421 70.658 149.482C72.5993 149.482 74.8743 149.512 77.483 149.573C80.1523 149.573 83.398 149.573 87.22 149.573C90.7387 149.573 93.7113 149.573 96.138 149.573C98.6253 149.512 100.809 149.482 102.69 149.482C104.571 149.421 106.3 149.391 107.877 149.391C109.515 149.33 111.244 149.27 113.064 149.209C112.882 152.364 112.761 155.185 112.7 157.672C112.7 160.159 112.7 162.586 112.7 164.952C111.608 165.195 110.546 165.195 109.515 164.952C108.848 161.615 108.15 159.128 107.422 157.49C106.755 155.791 105.754 154.669 104.419 154.123C103.084 153.516 101.143 153.213 98.595 153.213H91.315L81.76 202.171C81.5173 203.263 81.305 204.173 81.123 204.901C81.0017 205.629 80.941 206.296 80.941 206.903C80.941 208.238 81.4567 209.057 82.488 209.36C83.5193 209.663 85.7033 209.936 89.04 210.179C88.9793 210.604 88.8883 211.089 88.767 211.635C88.7063 212.181 88.6153 212.666 88.494 213.091C86.7347 213.091 84.6113 213.061 82.124 213C79.6973 212.939 77.4223 212.909 75.299 212.909C73.843 212.909 72.205 212.939 70.385 213C68.6257 213 66.927 213 65.289 213C63.651 213.061 62.2557 213.091 61.103 213.091C61.103 212.666 61.1333 212.181 61.194 211.635C61.2547 211.089 61.376 210.604 61.558 210.179C64.3487 209.936 66.3507 209.694 67.564 209.451C68.838 209.148 69.7177 208.541 70.203 207.631C70.6883 206.721 71.113 205.265 71.477 203.263L81.214 153.213H75.663C73.115 153.213 71.0523 153.365 69.475 153.668C67.9583 153.971 66.654 154.548 65.562 155.397C64.5307 156.186 63.5297 157.369 62.559 158.946C61.5883 160.463 60.4053 162.465 59.01 164.952C57.8573 165.195 56.735 165.195 55.643 164.952ZM141.986 201.079L140.166 189.34H120.146L113.867 200.806C113.078 202.323 112.38 203.688 111.774 204.901C111.228 206.054 110.955 206.964 110.955 207.631C110.955 208.541 111.44 209.117 112.411 209.36C113.442 209.603 115.171 209.876 117.598 210.179C117.598 211.21 117.416 212.181 117.052 213.091C116.202 213.03 114.989 213 113.412 213C111.834 213 110.257 213 108.68 213C107.102 212.939 105.859 212.909 104.949 212.909C103.25 212.909 101.642 212.939 100.126 213C98.609 213 96.9406 213.03 95.1206 213.091C95.1206 212.12 95.3026 211.18 95.6666 210.27C97.4866 210.149 98.973 209.967 100.126 209.724C101.278 209.421 102.34 208.875 103.311 208.086C104.281 207.237 105.373 205.902 106.587 204.082C107.8 202.201 109.377 199.593 111.319 196.256C113.017 193.283 114.989 189.825 117.234 185.882C119.478 181.939 121.844 177.813 124.332 173.506C126.819 169.199 129.246 164.952 131.612 160.766C133.978 156.58 136.162 152.788 138.164 149.391C139.013 149.209 139.771 149.057 140.439 148.936C141.167 148.815 141.864 148.724 142.532 148.663L151.905 200.624C152.329 202.808 152.724 204.537 153.088 205.811C153.512 207.024 154.028 207.904 154.635 208.45C155.241 208.996 156.06 209.39 157.092 209.633C158.123 209.815 159.488 209.997 161.187 210.179C161.187 211.21 161.005 212.181 160.641 213.091C159.185 213.03 157.425 213 155.363 213C153.3 212.939 151.268 212.909 149.266 212.909C147.506 212.909 145.201 212.939 142.35 213C139.498 213 136.829 213.03 134.342 213.091C134.402 212.606 134.463 212.12 134.524 211.635C134.584 211.089 134.706 210.604 134.888 210.179C137.072 209.936 138.71 209.724 139.802 209.542C140.894 209.36 141.622 208.996 141.986 208.45C142.41 207.843 142.623 206.903 142.623 205.629C142.623 205.326 142.592 204.871 142.532 204.264C142.471 203.597 142.289 202.535 141.986 201.079ZM122.33 185.518H139.529L135.707 161.13L122.33 185.518ZM204.434 213C202.19 208.147 199.763 203.384 197.154 198.713C194.546 193.981 191.725 189.067 188.691 183.971C187.903 184.76 187.114 185.548 186.325 186.337C185.597 187.065 184.9 187.732 184.232 188.339L181.593 202.171C181.411 203.202 181.229 204.112 181.047 204.901C180.865 205.629 180.774 206.296 180.774 206.903C180.774 208.238 181.26 209.057 182.23 209.36C183.201 209.663 185.264 209.936 188.418 210.179C188.358 210.604 188.267 211.089 188.145 211.635C188.085 212.181 187.994 212.666 187.872 213.091C186.113 213.091 184.081 213.061 181.775 213C179.47 212.939 177.256 212.909 175.132 212.909C172.888 212.909 170.461 212.939 167.852 213C165.244 213.061 163.09 213.091 161.391 213.091C161.391 212.666 161.422 212.181 161.482 211.635C161.543 211.089 161.664 210.604 161.846 210.179C164.455 209.936 166.336 209.694 167.488 209.451C168.702 209.148 169.551 208.571 170.036 207.722C170.522 206.812 170.946 205.326 171.31 203.263L179.682 160.129C179.925 159.037 180.107 158.127 180.228 157.399C180.35 156.61 180.41 155.943 180.41 155.397C180.41 154.002 179.864 153.183 178.772 152.94C177.741 152.637 175.648 152.364 172.493 152.121C172.615 151.15 172.797 150.18 173.039 149.209C174.799 149.209 176.983 149.239 179.591 149.3C182.2 149.361 184.627 149.391 186.871 149.391C188.934 149.391 191.179 149.361 193.605 149.3C196.032 149.239 198.095 149.209 199.793 149.209C199.793 150.24 199.611 151.211 199.247 152.121C196.639 152.303 194.758 152.546 193.605 152.849C192.453 153.152 191.664 153.759 191.239 154.669C190.815 155.518 190.39 156.974 189.965 159.037L185.597 181.696L206.982 161.676C211.047 157.854 213.079 155.427 213.079 154.396C213.079 153.789 212.746 153.304 212.078 152.94C211.411 152.576 209.834 152.303 207.346 152.121C207.407 151.636 207.468 151.15 207.528 150.665C207.589 150.18 207.71 149.694 207.892 149.209C208.924 149.209 210.228 149.239 211.805 149.3C213.443 149.3 215.051 149.33 216.628 149.391C218.266 149.391 219.571 149.391 220.541 149.391C222.483 149.391 224.242 149.361 225.819 149.3C227.457 149.239 229.035 149.209 230.551 149.209C230.551 150.119 230.369 151.09 230.005 152.121C227.639 152.182 225.455 152.697 223.453 153.668C221.512 154.578 219.419 155.973 217.174 157.854C214.93 159.735 212.2 162.161 208.984 165.134L195.88 177.055C198.61 181.544 201.037 185.7 203.16 189.522C205.344 193.283 207.589 197.166 209.894 201.17C210.986 203.111 211.896 204.658 212.624 205.811C213.413 206.903 214.202 207.752 214.99 208.359C215.779 208.966 216.78 209.39 217.993 209.633C219.207 209.876 220.814 210.058 222.816 210.179C222.816 211.21 222.634 212.151 222.27 213C221.118 213 219.722 213 218.084 213C216.446 212.939 214.808 212.909 213.17 212.909C211.532 212.909 210.167 212.909 209.075 212.909C208.408 212.909 207.68 212.939 206.891 213C206.103 213 205.284 213 204.434 213ZM224.576 213.091C224.576 212.666 224.606 212.181 224.667 211.635C224.728 211.089 224.849 210.604 225.031 210.179C227.64 209.936 229.52 209.694 230.673 209.451C231.886 209.148 232.736 208.571 233.221 207.722C233.706 206.812 234.131 205.326 234.495 203.263L242.867 160.129C243.11 159.037 243.292 158.097 243.413 157.308C243.534 156.519 243.595 155.882 243.595 155.397C243.595 154.002 243.049 153.183 241.957 152.94C240.926 152.637 238.833 152.364 235.678 152.121C235.739 151.636 235.799 151.181 235.86 150.756C235.921 150.271 236.072 149.755 236.315 149.209C237.468 149.209 238.984 149.239 240.865 149.3C242.806 149.3 244.899 149.33 247.144 149.391C249.389 149.391 251.512 149.391 253.514 149.391H265.981C269.682 149.391 272.836 149.391 275.445 149.391C278.114 149.33 280.298 149.27 281.997 149.209V153.213C281.997 154.851 281.997 156.519 281.997 158.218C282.058 159.917 282.088 161.737 282.088 163.678C281.117 163.86 280.207 163.86 279.358 163.678C278.448 160.827 277.599 158.643 276.81 157.126C276.021 155.609 274.869 154.578 273.352 154.032C271.896 153.425 269.682 153.122 266.709 153.122H254.515L249.692 177.965H255.243C257.427 177.965 259.156 177.904 260.43 177.783C261.704 177.601 262.735 177.237 263.524 176.691C264.313 176.084 265.01 175.174 265.617 173.961C266.224 172.687 266.921 170.928 267.71 168.683C268.863 168.501 269.985 168.501 271.077 168.683C270.652 170.321 270.167 172.202 269.621 174.325C269.136 176.448 268.711 178.39 268.347 180.149C267.983 181.908 267.619 183.85 267.255 185.973C266.891 188.096 266.588 190.129 266.345 192.07C265.132 192.252 263.979 192.252 262.887 192.07C263.008 191.403 263.069 190.705 263.069 189.977C263.13 189.249 263.16 188.642 263.16 188.157C263.16 186.094 262.887 184.638 262.341 183.789C261.795 182.94 260.885 182.424 259.611 182.242C258.398 181.999 256.669 181.878 254.424 181.878H248.964L243.686 209.087H256.608C260.066 209.087 262.826 208.723 264.889 207.995C266.952 207.206 268.711 205.902 270.167 204.082C271.623 202.262 273.17 199.835 274.808 196.802C275.961 196.499 277.113 196.499 278.266 196.802C276.931 200.381 275.839 203.506 274.99 206.175C274.201 208.844 273.564 211.119 273.079 213C267.134 213 261.128 213 255.061 213C248.994 212.939 243.019 212.909 237.134 212.909C235.435 212.909 233.342 212.939 230.855 213C228.428 213.061 226.335 213.091 224.576 213.091ZM341.492 201.079L339.672 189.34H319.652L313.373 200.806C312.585 202.323 311.887 203.688 311.28 204.901C310.734 206.054 310.461 206.964 310.461 207.631C310.461 208.541 310.947 209.117 311.917 209.36C312.949 209.603 314.678 209.876 317.104 210.179C317.104 211.21 316.922 212.181 316.558 213.091C315.709 213.03 314.496 213 312.918 213C311.341 213 309.764 213 308.186 213C306.609 212.939 305.365 212.909 304.455 212.909C302.757 212.909 301.149 212.939 299.632 213C298.116 213 296.447 213.03 294.627 213.091C294.627 212.12 294.809 211.18 295.173 210.27C296.993 210.149 298.48 209.967 299.632 209.724C300.785 209.421 301.847 208.875 302.817 208.086C303.788 207.237 304.88 205.902 306.093 204.082C307.307 202.201 308.884 199.593 310.825 196.256C312.524 193.283 314.496 189.825 316.74 185.882C318.985 181.939 321.351 177.813 323.838 173.506C326.326 169.199 328.752 164.952 331.118 160.766C333.484 156.58 335.668 152.788 337.67 149.391C338.52 149.209 339.278 149.057 339.945 148.936C340.673 148.815 341.371 148.724 342.038 148.663L351.411 200.624C351.836 202.808 352.23 204.537 352.594 205.811C353.019 207.024 353.535 207.904 354.141 208.45C354.748 208.996 355.567 209.39 356.598 209.633C357.63 209.815 358.995 209.997 360.693 210.179C360.693 211.21 360.511 212.181 360.147 213.091C358.691 213.03 356.932 213 354.869 213C352.807 212.939 350.774 212.909 348.772 212.909C347.013 212.909 344.708 212.939 341.856 213C339.005 213 336.336 213.03 333.848 213.091C333.909 212.606 333.97 212.12 334.03 211.635C334.091 211.089 334.212 210.604 334.394 210.179C336.578 209.936 338.216 209.724 339.308 209.542C340.4 209.36 341.128 208.996 341.492 208.45C341.917 207.843 342.129 206.903 342.129 205.629C342.129 205.326 342.099 204.871 342.038 204.264C341.978 203.597 341.796 202.535 341.492 201.079ZM321.836 185.518H339.035L335.213 161.13L321.836 185.518ZM76.118 297.273C75.026 297.273 73.6003 297.243 71.841 297.182C70.1423 297.121 68.383 297.061 66.563 297C64.743 296.939 63.0747 296.909 61.558 296.909C60.466 296.909 59.0403 296.939 57.281 297C55.5217 297 53.7623 297 52.003 297C50.3043 297.061 48.9393 297.091 47.908 297.091C47.908 296.666 47.9383 296.181 47.999 295.635C48.0597 295.089 48.181 294.604 48.363 294.179C50.9717 293.876 52.8523 293.603 54.005 293.36C55.2183 293.117 56.0373 292.571 56.462 291.722C56.9473 290.812 57.4023 289.326 57.827 287.263L66.199 244.129C66.4417 242.976 66.6237 242.036 66.745 241.308C66.8663 240.58 66.927 239.943 66.927 239.397C66.927 238.002 66.381 237.183 65.289 236.94C64.2577 236.637 62.1647 236.364 59.01 236.121C59.1313 235.15 59.3133 234.18 59.556 233.209C60.7087 233.209 62.104 233.239 63.742 233.3C65.38 233.3 67.018 233.33 68.656 233.391C70.294 233.391 71.659 233.391 72.751 233.391C73.5397 233.391 74.6923 233.391 76.209 233.391C77.7863 233.33 79.303 233.3 80.759 233.3C82.215 233.3 83.2463 233.3 83.853 233.3C86.3403 233.3 88.767 233.512 91.133 233.937C93.5597 234.362 95.7133 235.09 97.594 236.121C99.5353 237.092 101.082 238.487 102.235 240.307C103.388 242.066 103.964 244.341 103.964 247.132C103.964 250.59 103.115 253.441 101.416 255.686C99.7173 257.87 97.5637 259.599 94.955 260.873C92.3463 262.086 89.6467 263.027 86.856 263.694V263.876C89.2827 264.179 91.6183 264.877 93.863 265.969C96.1683 267.061 98.049 268.669 99.505 270.792C101.022 272.915 101.78 275.706 101.78 279.164C101.78 282.683 100.991 285.625 99.414 287.991C97.8367 290.296 95.774 292.147 93.226 293.542C90.678 294.877 87.8873 295.847 84.854 296.454C81.8813 297 78.9693 297.273 76.118 297.273ZM71.932 266.242L66.836 292.723C68.2313 293.026 69.8087 293.269 71.568 293.451C73.3273 293.572 74.7833 293.633 75.936 293.633C80.7287 293.633 84.4293 292.298 87.038 289.629C89.7073 286.899 91.042 283.229 91.042 278.618C91.042 275.403 90.405 272.885 89.131 271.065C87.9177 269.245 86.1887 267.971 83.944 267.243C81.76 266.454 79.212 266.06 76.3 266.06C75.8753 266.06 75.2383 266.06 74.389 266.06C73.5397 266.06 72.7207 266.121 71.932 266.242ZM77.574 237.122L72.66 262.329C73.5093 262.39 74.389 262.42 75.299 262.42C76.209 262.42 76.9067 262.42 77.392 262.42C82.67 262.42 86.7043 261.085 89.495 258.416C92.2857 255.747 93.681 252.228 93.681 247.86C93.681 243.735 92.5587 240.914 90.314 239.397C88.0693 237.82 85.309 237.031 82.033 237.031C81.6083 237.031 81.0017 237.031 80.213 237.031C79.4243 237.031 78.5447 237.061 77.574 237.122ZM136.523 271.793C135.977 270.762 135.461 269.973 134.976 269.427C134.49 268.881 133.823 268.487 132.974 268.244C132.185 267.941 130.972 267.728 129.334 267.607L125.785 286.171C125.603 287.202 125.421 288.112 125.239 288.901C125.117 289.69 125.057 290.418 125.057 291.085C125.057 292.298 125.512 293.057 126.422 293.36C127.392 293.663 129.455 293.936 132.61 294.179C132.549 294.604 132.458 295.089 132.337 295.635C132.276 296.181 132.185 296.666 132.064 297.091C130.183 297.03 128.06 297 125.694 297C123.388 296.939 121.204 296.909 119.142 296.909C117.079 296.909 114.925 296.939 112.681 297C110.497 297 108.161 297.03 105.674 297.091C105.674 296.666 105.704 296.181 105.765 295.635C105.825 295.089 105.947 294.604 106.129 294.179C108.737 293.876 110.618 293.603 111.771 293.36C112.984 293.057 113.803 292.48 114.228 291.631C114.713 290.721 115.138 289.265 115.502 287.263L123.874 244.129C124.116 243.037 124.298 242.127 124.42 241.399C124.541 240.61 124.602 239.943 124.602 239.397C124.602 238.002 124.056 237.183 122.964 236.94C121.932 236.637 119.839 236.364 116.685 236.121C116.745 235.211 116.927 234.24 117.231 233.209C118.99 233.209 120.992 233.239 123.237 233.3C125.481 233.361 127.301 233.391 128.697 233.391C129.667 233.391 131.063 233.391 132.883 233.391C134.703 233.33 136.492 233.3 138.252 233.3C140.011 233.239 141.315 233.209 142.165 233.209C148.656 233.209 153.57 234.362 156.907 236.667C160.304 238.972 162.003 242.552 162.003 247.405C162.003 252.319 160.334 256.384 156.998 259.599C153.661 262.754 149.354 265.089 144.076 266.606V266.879C144.561 267.425 145.016 268.032 145.441 268.699C145.926 269.306 146.411 270.034 146.897 270.883C147.443 271.793 148.11 273.067 148.899 274.705C149.748 276.343 150.628 278.102 151.538 279.983C152.448 281.803 153.297 283.532 154.086 285.17C155.42 287.839 156.573 289.811 157.544 291.085C158.514 292.298 159.606 293.087 160.82 293.451C162.033 293.754 163.641 293.997 165.643 294.179C165.643 295.15 165.43 296.12 165.006 297.091C164.035 297.091 162.761 297.061 161.184 297C159.606 297 158.059 297 156.543 297C155.026 296.939 153.813 296.909 152.903 296.909C151.932 296.909 151.143 296.939 150.537 297C149.991 297 149.232 297 148.262 297C147.291 294.513 146.169 291.843 144.895 288.992C143.681 286.08 142.347 283.138 140.891 280.165C139.495 277.192 138.039 274.402 136.523 271.793ZM130.062 263.876C130.85 263.997 131.669 264.119 132.519 264.24C133.429 264.301 134.308 264.331 135.158 264.331C138.98 264.331 142.104 263.603 144.531 262.147C146.957 260.691 148.747 258.75 149.9 256.323C151.052 253.896 151.629 251.227 151.629 248.315C151.629 246.495 151.325 244.736 150.719 243.037C150.173 241.278 149.111 239.822 147.534 238.669C146.017 237.516 143.803 236.94 140.891 236.94C140.345 236.94 139.495 236.97 138.343 237.031C137.251 237.031 136.219 237.061 135.249 237.122L130.062 263.876ZM166.101 297.091C166.101 296.666 166.132 296.181 166.192 295.635C166.253 295.089 166.374 294.604 166.556 294.179C169.165 293.936 171.046 293.694 172.198 293.451C173.412 293.148 174.261 292.571 174.746 291.722C175.232 290.812 175.656 289.326 176.02 287.263L184.392 244.129C184.635 243.037 184.817 242.097 184.938 241.308C185.06 240.519 185.12 239.882 185.12 239.397C185.12 238.002 184.574 237.183 183.482 236.94C182.451 236.637 180.358 236.364 177.203 236.121C177.264 235.636 177.325 235.181 177.385 234.756C177.446 234.271 177.598 233.755 177.84 233.209C178.993 233.209 180.51 233.239 182.39 233.3C184.332 233.3 186.425 233.33 188.669 233.391C190.914 233.391 193.037 233.391 195.039 233.391H207.506C211.207 233.391 214.362 233.391 216.97 233.391C219.64 233.33 221.824 233.27 223.522 233.209V237.213C223.522 238.851 223.522 240.519 223.522 242.218C223.583 243.917 223.613 245.737 223.613 247.678C222.643 247.86 221.733 247.86 220.883 247.678C219.973 244.827 219.124 242.643 218.335 241.126C217.547 239.609 216.394 238.578 214.877 238.032C213.421 237.425 211.207 237.122 208.234 237.122H196.04L191.217 261.965H196.768C198.952 261.965 200.681 261.904 201.955 261.783C203.229 261.601 204.261 261.237 205.049 260.691C205.838 260.084 206.536 259.174 207.142 257.961C207.749 256.687 208.447 254.928 209.235 252.683C210.388 252.501 211.51 252.501 212.602 252.683C212.178 254.321 211.692 256.202 211.146 258.325C210.661 260.448 210.236 262.39 209.872 264.149C209.508 265.908 209.144 267.85 208.78 269.973C208.416 272.096 208.113 274.129 207.87 276.07C206.657 276.252 205.504 276.252 204.412 276.07C204.534 275.403 204.594 274.705 204.594 273.977C204.655 273.249 204.685 272.642 204.685 272.157C204.685 270.094 204.412 268.638 203.866 267.789C203.32 266.94 202.41 266.424 201.136 266.242C199.923 265.999 198.194 265.878 195.949 265.878H190.489L185.211 293.087H198.133C201.591 293.087 204.352 292.723 206.414 291.995C208.477 291.206 210.236 289.902 211.692 288.082C213.148 286.262 214.695 283.835 216.333 280.802C217.486 280.499 218.639 280.499 219.791 280.802C218.457 284.381 217.365 287.506 216.515 290.175C215.727 292.844 215.09 295.119 214.604 297C208.659 297 202.653 297 196.586 297C190.52 296.939 184.544 296.909 178.659 296.909C176.961 296.909 174.868 296.939 172.38 297C169.954 297.061 167.861 297.091 166.101 297.091ZM263.023 285.079L261.203 273.34H241.183L234.904 284.806C234.115 286.323 233.417 287.688 232.811 288.901C232.265 290.054 231.992 290.964 231.992 291.631C231.992 292.541 232.477 293.117 233.448 293.36C234.479 293.603 236.208 293.876 238.635 294.179C238.635 295.21 238.453 296.181 238.089 297.091C237.239 297.03 236.026 297 234.449 297C232.871 297 231.294 297 229.717 297C228.139 296.939 226.896 296.909 225.986 296.909C224.287 296.909 222.679 296.939 221.163 297C219.646 297 217.978 297.03 216.158 297.091C216.158 296.12 216.34 295.18 216.704 294.27C218.524 294.149 220.01 293.967 221.163 293.724C222.315 293.421 223.377 292.875 224.348 292.086C225.318 291.237 226.41 289.902 227.624 288.082C228.837 286.201 230.414 283.593 232.356 280.256C234.054 277.283 236.026 273.825 238.271 269.882C240.515 265.939 242.881 261.813 245.369 257.506C247.856 253.199 250.283 248.952 252.649 244.766C255.015 240.58 257.199 236.788 259.201 233.391C260.05 233.209 260.808 233.057 261.476 232.936C262.204 232.815 262.901 232.724 263.569 232.663L272.942 284.624C273.366 286.808 273.761 288.537 274.125 289.811C274.549 291.024 275.065 291.904 275.672 292.45C276.278 292.996 277.097 293.39 278.129 293.633C279.16 293.815 280.525 293.997 282.224 294.179C282.224 295.21 282.042 296.181 281.678 297.091C280.222 297.03 278.462 297 276.4 297C274.337 296.939 272.305 296.909 270.303 296.909C268.543 296.909 266.238 296.939 263.387 297C260.535 297 257.866 297.03 255.379 297.091C255.439 296.606 255.5 296.12 255.561 295.635C255.621 295.089 255.743 294.604 255.925 294.179C258.109 293.936 259.747 293.724 260.839 293.542C261.931 293.36 262.659 292.996 263.023 292.45C263.447 291.843 263.66 290.903 263.66 289.629C263.66 289.326 263.629 288.871 263.569 288.264C263.508 287.597 263.326 286.535 263.023 285.079ZM243.367 269.518H260.566L256.744 245.13L243.367 269.518ZM284.209 248.952C285.059 246.343 285.817 243.735 286.484 241.126C287.212 238.457 287.971 235.818 288.759 233.209C290.579 233.27 292.308 233.33 293.946 233.391C295.584 233.391 297.344 233.421 299.224 233.482C301.166 233.482 303.441 233.512 306.049 233.573C308.719 233.573 311.964 233.573 315.786 233.573C319.305 233.573 322.278 233.573 324.704 233.573C327.192 233.512 329.376 233.482 331.256 233.482C333.137 233.421 334.866 233.391 336.443 233.391C338.081 233.33 339.81 233.27 341.63 233.209C341.448 236.364 341.327 239.185 341.266 241.672C341.266 244.159 341.266 246.586 341.266 248.952C340.174 249.195 339.113 249.195 338.081 248.952C337.414 245.615 336.716 243.128 335.988 241.49C335.321 239.791 334.32 238.669 332.985 238.123C331.651 237.516 329.709 237.213 327.161 237.213H319.881L310.326 286.171C310.084 287.263 309.871 288.173 309.689 288.901C309.568 289.629 309.507 290.296 309.507 290.903C309.507 292.238 310.023 293.057 311.054 293.36C312.086 293.663 314.27 293.936 317.606 294.179C317.546 294.604 317.455 295.089 317.333 295.635C317.273 296.181 317.182 296.666 317.06 297.091C315.301 297.091 313.178 297.061 310.69 297C308.264 296.939 305.989 296.909 303.865 296.909C302.409 296.909 300.771 296.939 298.951 297C297.192 297 295.493 297 293.855 297C292.217 297.061 290.822 297.091 289.669 297.091C289.669 296.666 289.7 296.181 289.76 295.635C289.821 295.089 289.942 294.604 290.124 294.179C292.915 293.936 294.917 293.694 296.13 293.451C297.404 293.148 298.284 292.541 298.769 291.631C299.255 290.721 299.679 289.265 300.043 287.263L309.78 237.213H304.229C301.681 237.213 299.619 237.365 298.041 237.668C296.525 237.971 295.22 238.548 294.128 239.397C293.097 240.186 292.096 241.369 291.125 242.946C290.155 244.463 288.972 246.465 287.576 248.952C286.424 249.195 285.301 249.195 284.209 248.952ZM336.637 297.091C336.637 296.666 336.668 296.181 336.728 295.635C336.789 295.089 336.91 294.604 337.092 294.179C339.701 293.936 341.582 293.694 342.734 293.451C343.948 293.148 344.797 292.541 345.282 291.631C345.768 290.721 346.192 289.265 346.556 287.263L354.928 244.129C355.171 243.037 355.353 242.127 355.474 241.399C355.596 240.61 355.656 239.943 355.656 239.397C355.656 238.002 355.11 237.183 354.018 236.94C352.987 236.637 350.894 236.364 347.739 236.121C347.861 235.15 348.043 234.18 348.285 233.209C350.045 233.209 352.229 233.239 354.837 233.3C357.446 233.361 359.873 233.391 362.117 233.391C364.18 233.391 366.425 233.361 368.851 233.3C371.278 233.239 373.341 233.209 375.039 233.209C375.039 234.24 374.857 235.211 374.493 236.121C371.885 236.364 370.004 236.637 368.851 236.94C367.699 237.183 366.91 237.759 366.485 238.669C366.061 239.518 365.636 240.974 365.211 243.037L361.662 261.419H392.693L396.06 244.129C396.303 243.037 396.485 242.127 396.606 241.399C396.728 240.61 396.788 239.943 396.788 239.397C396.788 238.002 396.242 237.183 395.15 236.94C394.119 236.637 392.026 236.364 388.871 236.121C388.993 235.15 389.175 234.18 389.417 233.209C391.177 233.209 393.361 233.239 395.969 233.3C398.578 233.361 401.005 233.391 403.249 233.391C405.312 233.391 407.557 233.361 409.983 233.3C412.41 233.239 414.473 233.209 416.171 233.209C416.171 234.24 415.989 235.211 415.625 236.121C413.017 236.364 411.136 236.637 409.983 236.94C408.831 237.183 408.042 237.759 407.617 238.669C407.193 239.518 406.768 240.974 406.343 243.037L397.971 286.171C397.789 287.202 397.607 288.112 397.425 288.901C397.243 289.629 397.152 290.296 397.152 290.903C397.152 292.238 397.638 293.057 398.608 293.36C399.579 293.663 401.642 293.936 404.796 294.179C404.736 294.604 404.645 295.089 404.523 295.635C404.463 296.181 404.372 296.666 404.25 297.091C402.491 297.091 400.459 297.061 398.153 297C395.848 296.939 393.634 296.909 391.51 296.909C389.266 296.909 386.839 296.939 384.23 297C381.622 297.061 379.468 297.091 377.769 297.091C377.769 296.666 377.8 296.181 377.86 295.635C377.921 295.089 378.042 294.604 378.224 294.179C380.833 293.936 382.714 293.694 383.866 293.451C385.08 293.148 385.929 292.571 386.414 291.722C386.9 290.812 387.324 289.326 387.688 287.263L391.965 265.332H360.843L356.839 286.171C356.657 287.202 356.475 288.112 356.293 288.901C356.111 289.629 356.02 290.296 356.02 290.903C356.02 292.238 356.506 293.057 357.476 293.36C358.447 293.663 360.51 293.936 363.664 294.179C363.604 294.604 363.513 295.089 363.391 295.635C363.331 296.181 363.24 296.666 363.118 297.091C361.359 297.091 359.327 297.061 357.021 297C354.716 296.939 352.502 296.909 350.378 296.909C348.134 296.909 345.707 296.939 343.098 297C340.49 297.061 338.336 297.091 336.637 297.091ZM410.486 297.091C410.486 296.666 410.516 296.181 410.577 295.635C410.638 295.089 410.759 294.604 410.941 294.179C413.55 293.936 415.43 293.694 416.583 293.451C417.796 293.148 418.646 292.571 419.131 291.722C419.616 290.812 420.041 289.326 420.405 287.263L428.777 244.129C429.02 243.037 429.202 242.097 429.323 241.308C429.444 240.519 429.505 239.882 429.505 239.397C429.505 238.002 428.959 237.183 427.867 236.94C426.836 236.637 424.743 236.364 421.588 236.121C421.649 235.636 421.709 235.181 421.77 234.756C421.831 234.271 421.982 233.755 422.225 233.209C423.378 233.209 424.894 233.239 426.775 233.3C428.716 233.3 430.809 233.33 433.054 233.391C435.299 233.391 437.422 233.391 439.424 233.391H451.891C455.592 233.391 458.746 233.391 461.355 233.391C464.024 233.33 466.208 233.27 467.907 233.209V237.213C467.907 238.851 467.907 240.519 467.907 242.218C467.968 243.917 467.998 245.737 467.998 247.678C467.027 247.86 466.117 247.86 465.268 247.678C464.358 244.827 463.509 242.643 462.72 241.126C461.931 239.609 460.779 238.578 459.262 238.032C457.806 237.425 455.592 237.122 452.619 237.122H440.425L435.602 261.965H441.153C443.337 261.965 445.066 261.904 446.34 261.783C447.614 261.601 448.645 261.237 449.434 260.691C450.223 260.084 450.92 259.174 451.527 257.961C452.134 256.687 452.831 254.928 453.62 252.683C454.773 252.501 455.895 252.501 456.987 252.683C456.562 254.321 456.077 256.202 455.531 258.325C455.046 260.448 454.621 262.39 454.257 264.149C453.893 265.908 453.529 267.85 453.165 269.973C452.801 272.096 452.498 274.129 452.255 276.07C451.042 276.252 449.889 276.252 448.797 276.07C448.918 275.403 448.979 274.705 448.979 273.977C449.04 273.249 449.07 272.642 449.07 272.157C449.07 270.094 448.797 268.638 448.251 267.789C447.705 266.94 446.795 266.424 445.521 266.242C444.308 265.999 442.579 265.878 440.334 265.878H434.874L429.596 293.087H442.518C445.976 293.087 448.736 292.723 450.799 291.995C452.862 291.206 454.621 289.902 456.077 288.082C457.533 286.262 459.08 283.835 460.718 280.802C461.871 280.499 463.023 280.499 464.176 280.802C462.841 284.381 461.749 287.506 460.9 290.175C460.111 292.844 459.474 295.119 458.989 297C453.044 297 447.038 297 440.971 297C434.904 296.939 428.929 296.909 423.044 296.909C421.345 296.909 419.252 296.939 416.765 297C414.338 297.061 412.245 297.091 410.486 297.091Z" fill="#F8F8F8"/>
</svg>
