<svg width="540" height="445" viewBox="0 0 540 445" fill="none" xmlns="http://www.w3.org/2000/svg">
<rect width="540" height="445" fill="white"/>
<rect width="540" height="445" fill="#CF2222"/>
<path d="M48.395 116.73H59.12L63.245 146.32H63.355L67.48 116.73H78.37L69.9 156H56.7L48.395 116.73ZM89.3992 136.365C89.3992 139.005 89.4359 141.205 89.5092 142.965C89.5826 144.688 89.7292 146.063 89.9492 147.09C90.2059 148.117 90.5542 148.832 90.9942 149.235C91.4709 149.638 92.0942 149.84 92.8642 149.84C93.6342 149.84 94.2392 149.638 94.6792 149.235C95.1559 148.832 95.5042 148.117 95.7242 147.09C95.9809 146.063 96.1459 144.688 96.2192 142.965C96.2926 141.205 96.3292 139.005 96.3292 136.365C96.3292 133.725 96.2926 131.543 96.2192 129.82C96.1459 128.06 95.9809 126.667 95.7242 125.64C95.5042 124.613 95.1559 123.898 94.6792 123.495C94.2392 123.092 93.6342 122.89 92.8642 122.89C92.0942 122.89 91.4709 123.092 90.9942 123.495C90.5542 123.898 90.2059 124.613 89.9492 125.64C89.7292 126.667 89.5826 128.06 89.5092 129.82C89.4359 131.543 89.3992 133.725 89.3992 136.365ZM78.8392 136.365C78.8392 132.698 79.0776 129.582 79.5542 127.015C80.0309 124.412 80.8192 122.303 81.9192 120.69C83.0192 119.04 84.4676 117.848 86.2642 117.115C88.0609 116.345 90.2609 115.96 92.8642 115.96C95.4676 115.96 97.6676 116.345 99.4642 117.115C101.261 117.848 102.709 119.04 103.809 120.69C104.909 122.303 105.698 124.412 106.174 127.015C106.651 129.582 106.889 132.698 106.889 136.365C106.889 140.032 106.651 143.167 106.174 145.77C105.698 148.337 104.909 150.445 103.809 152.095C102.709 153.708 101.261 154.863 99.4642 155.56C97.6676 156.257 95.4676 156.605 92.8642 156.605C90.2609 156.605 88.0609 156.257 86.2642 155.56C84.4676 154.863 83.0192 153.708 81.9192 152.095C80.8192 150.445 80.0309 148.337 79.5542 145.77C79.0776 143.167 78.8392 140.032 78.8392 136.365ZM115.763 140.545L105.918 116.73H116.973L120.823 130.425H120.933L124.783 116.73H136.003L125.993 140.545V156H115.763V140.545ZM147.111 124.76L144.306 141.425H150.026L147.221 124.76H147.111ZM153.601 116.73L163.171 156H152.281L151.236 149.125H143.096L142.051 156H131.326L140.731 116.73H153.601ZM178.058 134.66H191.258V156H184.328L184.108 152.535H183.998C183.668 153.378 183.191 154.075 182.568 154.625C181.981 155.175 181.303 155.597 180.533 155.89C179.799 156.147 178.993 156.33 178.113 156.44C177.269 156.55 176.408 156.605 175.528 156.605C172.924 156.605 170.871 156.183 169.368 155.34C167.864 154.46 166.728 153.158 165.958 151.435C165.188 149.712 164.693 147.585 164.473 145.055C164.289 142.525 164.198 139.628 164.198 136.365C164.198 133.065 164.381 130.15 164.748 127.62C165.151 125.09 165.884 122.963 166.948 121.24C168.048 119.517 169.551 118.215 171.458 117.335C173.364 116.418 175.821 115.96 178.828 115.96C180.624 115.96 182.274 116.198 183.778 116.675C185.318 117.152 186.638 117.922 187.738 118.985C188.838 120.048 189.699 121.423 190.323 123.11C190.946 124.76 191.258 126.777 191.258 129.16H181.358C181.358 127.07 181.174 125.548 180.808 124.595C180.441 123.458 179.653 122.89 178.443 122.89C177.599 122.89 176.921 123.092 176.408 123.495C175.931 123.898 175.564 124.613 175.308 125.64C175.088 126.667 174.941 128.06 174.868 129.82C174.794 131.543 174.758 133.725 174.758 136.365C174.758 139.005 174.794 141.205 174.868 142.965C174.941 144.688 175.088 146.063 175.308 147.09C175.564 148.117 175.913 148.832 176.353 149.235C176.829 149.638 177.453 149.84 178.223 149.84C178.773 149.84 179.249 149.73 179.653 149.51C180.093 149.29 180.459 148.887 180.753 148.3C181.046 147.677 181.266 146.833 181.413 145.77C181.596 144.67 181.688 143.277 181.688 141.59H178.058V134.66ZM195.419 116.73H218.684V125.09H205.649V131.8H217.859V139.83H205.649V147.64H219.179V156H195.419V116.73ZM237.206 116.73H252.056C255.026 116.73 257.336 117.28 258.986 118.38C260.636 119.443 261.864 120.892 262.671 122.725C263.514 124.522 264.028 126.612 264.211 128.995C264.394 131.342 264.486 133.798 264.486 136.365C264.486 138.932 264.394 141.407 264.211 143.79C264.028 146.137 263.514 148.227 262.671 150.06C261.864 151.857 260.636 153.305 258.986 154.405C257.336 155.468 255.026 156 252.056 156H237.206V116.73ZM247.436 148.63H249.471C250.461 148.63 251.249 148.502 251.836 148.245C252.423 147.952 252.863 147.365 253.156 146.485C253.486 145.605 253.688 144.358 253.761 142.745C253.871 141.132 253.926 139.005 253.926 136.365C253.926 133.725 253.871 131.598 253.761 129.985C253.688 128.372 253.486 127.125 253.156 126.245C252.863 125.365 252.423 124.797 251.836 124.54C251.249 124.247 250.461 124.1 249.471 124.1H247.436V148.63ZM280.636 124.76L277.831 141.425H283.551L280.746 124.76H280.636ZM287.126 116.73L296.696 156H285.806L284.761 149.125H276.621L275.576 156H264.851L274.256 116.73H287.126ZM298.383 116.73H309.823L316.423 140.93H316.533V116.73H326.103V156H314.883L308.063 131.745H307.953V156H298.383V116.73ZM346.222 128.06V127.125C346.222 125.952 345.983 124.962 345.507 124.155C345.03 123.312 344.297 122.89 343.307 122.89C342.207 122.89 341.4 123.257 340.887 123.99C340.373 124.687 340.117 125.475 340.117 126.355C340.117 127.638 340.52 128.665 341.327 129.435C342.17 130.168 343.215 130.81 344.462 131.36C345.708 131.91 347.047 132.478 348.477 133.065C349.907 133.615 351.245 134.348 352.492 135.265C353.738 136.182 354.765 137.392 355.572 138.895C356.415 140.362 356.837 142.287 356.837 144.67C356.837 148.85 355.645 151.893 353.262 153.8C350.878 155.67 347.432 156.605 342.922 156.605C340.795 156.605 338.907 156.422 337.257 156.055C335.643 155.725 334.268 155.138 333.132 154.295C332.032 153.415 331.188 152.278 330.602 150.885C330.015 149.492 329.722 147.768 329.722 145.715V144.34H339.622V145.275C339.622 146.962 339.933 148.153 340.557 148.85C341.18 149.51 341.987 149.84 342.977 149.84C344.04 149.84 344.847 149.473 345.397 148.74C345.983 148.007 346.277 147.108 346.277 146.045C346.277 144.762 345.873 143.753 345.067 143.02C344.297 142.25 343.307 141.608 342.097 141.095C340.923 140.545 339.64 139.995 338.247 139.445C336.853 138.895 335.552 138.18 334.342 137.3C333.168 136.42 332.178 135.265 331.372 133.835C330.602 132.405 330.217 130.535 330.217 128.225C330.217 124.228 331.28 121.185 333.407 119.095C335.533 117.005 338.76 115.96 343.087 115.96C347.56 115.96 350.787 116.932 352.767 118.875C354.783 120.782 355.792 123.843 355.792 128.06H346.222ZM374.76 116.73H384.99V147.64H397.585V156H374.76V116.73ZM400.219 116.73H423.484V125.09H410.449V131.8H422.659V139.83H410.449V147.64H423.979V156H400.219V116.73ZM443.009 128.06V127.125C443.009 125.952 442.77 124.962 442.294 124.155C441.817 123.312 441.084 122.89 440.094 122.89C438.994 122.89 438.187 123.257 437.674 123.99C437.16 124.687 436.904 125.475 436.904 126.355C436.904 127.638 437.307 128.665 438.114 129.435C438.957 130.168 440.002 130.81 441.249 131.36C442.495 131.91 443.834 132.478 445.264 133.065C446.694 133.615 448.032 134.348 449.279 135.265C450.525 136.182 451.552 137.392 452.359 138.895C453.202 140.362 453.624 142.287 453.624 144.67C453.624 148.85 452.432 151.893 450.049 153.8C447.665 155.67 444.219 156.605 439.709 156.605C437.582 156.605 435.694 156.422 434.044 156.055C432.43 155.725 431.055 155.138 429.919 154.295C428.819 153.415 427.975 152.278 427.389 150.885C426.802 149.492 426.509 147.768 426.509 145.715V144.34H436.409V145.275C436.409 146.962 436.72 148.153 437.344 148.85C437.967 149.51 438.774 149.84 439.764 149.84C440.827 149.84 441.634 149.473 442.184 148.74C442.77 148.007 443.064 147.108 443.064 146.045C443.064 144.762 442.66 143.753 441.854 143.02C441.084 142.25 440.094 141.608 438.884 141.095C437.71 140.545 436.427 139.995 435.034 139.445C433.64 138.895 432.339 138.18 431.129 137.3C429.955 136.42 428.965 135.265 428.159 133.835C427.389 132.405 427.004 130.535 427.004 128.225C427.004 124.228 428.067 121.185 430.194 119.095C432.32 117.005 435.547 115.96 439.874 115.96C444.347 115.96 447.574 116.932 449.554 118.875C451.57 120.782 452.579 123.843 452.579 128.06H443.009ZM61.98 206.63H64.84C65.7933 206.63 66.6367 206.245 67.37 205.475C68.1033 204.668 68.47 203.44 68.47 201.79C68.47 200.25 68.1033 199.077 67.37 198.27C66.6367 197.463 65.7933 197.06 64.84 197.06H61.98V206.63ZM61.98 190.13H64.455C65.5183 190.13 66.325 189.745 66.875 188.975C67.425 188.168 67.7 187.233 67.7 186.17C67.7 185.07 67.425 184.117 66.875 183.31C66.325 182.503 65.5183 182.1 64.455 182.1H61.98V190.13ZM51.75 174.73H67.205C70.8717 174.73 73.5667 175.628 75.29 177.425C77.05 179.185 77.93 181.55 77.93 184.52C77.93 185.547 77.8017 186.555 77.545 187.545C77.325 188.498 76.9583 189.378 76.445 190.185C75.9683 190.955 75.345 191.615 74.575 192.165C73.805 192.715 72.87 193.1 71.77 193.32V193.43C73.0533 193.54 74.1533 193.888 75.07 194.475C75.9867 195.025 76.7383 195.722 77.325 196.565C77.9117 197.408 78.3333 198.343 78.59 199.37C78.8833 200.36 79.03 201.368 79.03 202.395C79.03 204.082 78.81 205.64 78.37 207.07C77.93 208.5 77.2333 209.728 76.28 210.755C75.3633 211.782 74.1533 212.588 72.65 213.175C71.1467 213.725 69.3317 214 67.205 214H51.75V174.73ZM95.817 182.76L93.012 199.425H98.732L95.927 182.76H95.817ZM102.307 174.73L111.877 214H100.987L99.942 207.125H91.802L90.757 214H80.032L89.437 174.73H102.307ZM128.854 186.06V185.125C128.854 183.952 128.615 182.962 128.139 182.155C127.662 181.312 126.929 180.89 125.939 180.89C124.839 180.89 124.032 181.257 123.519 181.99C123.005 182.687 122.749 183.475 122.749 184.355C122.749 185.638 123.152 186.665 123.959 187.435C124.802 188.168 125.847 188.81 127.094 189.36C128.34 189.91 129.679 190.478 131.109 191.065C132.539 191.615 133.877 192.348 135.124 193.265C136.37 194.182 137.397 195.392 138.204 196.895C139.047 198.362 139.469 200.287 139.469 202.67C139.469 206.85 138.277 209.893 135.894 211.8C133.51 213.67 130.064 214.605 125.554 214.605C123.427 214.605 121.539 214.422 119.889 214.055C118.275 213.725 116.9 213.138 115.764 212.295C114.664 211.415 113.82 210.278 113.234 208.885C112.647 207.492 112.354 205.768 112.354 203.715V202.34H122.254V203.275C122.254 204.962 122.565 206.153 123.189 206.85C123.812 207.51 124.619 207.84 125.609 207.84C126.672 207.84 127.479 207.473 128.029 206.74C128.615 206.007 128.909 205.108 128.909 204.045C128.909 202.762 128.505 201.753 127.699 201.02C126.929 200.25 125.939 199.608 124.729 199.095C123.555 198.545 122.272 197.995 120.879 197.445C119.485 196.895 118.184 196.18 116.974 195.3C115.8 194.42 114.81 193.265 114.004 191.835C113.234 190.405 112.849 188.535 112.849 186.225C112.849 182.228 113.912 179.185 116.039 177.095C118.165 175.005 121.392 173.96 125.719 173.96C130.192 173.96 133.419 174.932 135.399 176.875C137.415 178.782 138.424 181.843 138.424 186.06H128.854ZM142.225 193.925H159.385V202.285H142.225V193.925ZM163.354 174.73H186.619V183.09H173.584V189.8H185.794V197.83H173.584V214H163.354V174.73ZM199.238 194.365C199.238 197.005 199.275 199.205 199.348 200.965C199.421 202.688 199.568 204.063 199.788 205.09C200.045 206.117 200.393 206.832 200.833 207.235C201.31 207.638 201.933 207.84 202.703 207.84C203.473 207.84 204.078 207.638 204.518 207.235C204.995 206.832 205.343 206.117 205.563 205.09C205.82 204.063 205.985 202.688 206.058 200.965C206.131 199.205 206.168 197.005 206.168 194.365C206.168 191.725 206.131 189.543 206.058 187.82C205.985 186.06 205.82 184.667 205.563 183.64C205.343 182.613 204.995 181.898 204.518 181.495C204.078 181.092 203.473 180.89 202.703 180.89C201.933 180.89 201.31 181.092 200.833 181.495C200.393 181.898 200.045 182.613 199.788 183.64C199.568 184.667 199.421 186.06 199.348 187.82C199.275 189.543 199.238 191.725 199.238 194.365ZM188.678 194.365C188.678 190.698 188.916 187.582 189.393 185.015C189.87 182.412 190.658 180.303 191.758 178.69C192.858 177.04 194.306 175.848 196.103 175.115C197.9 174.345 200.1 173.96 202.703 173.96C205.306 173.96 207.506 174.345 209.303 175.115C211.1 175.848 212.548 177.04 213.648 178.69C214.748 180.303 215.536 182.412 216.013 185.015C216.49 187.582 216.728 190.698 216.728 194.365C216.728 198.032 216.49 201.167 216.013 203.77C215.536 206.337 214.748 208.445 213.648 210.095C212.548 211.708 211.1 212.863 209.303 213.56C207.506 214.257 205.306 214.605 202.703 214.605C200.1 214.605 197.9 214.257 196.103 213.56C194.306 212.863 192.858 211.708 191.758 210.095C190.658 208.445 189.87 206.337 189.393 203.77C188.916 201.167 188.678 198.032 188.678 194.365ZM220.395 174.73H231.835L238.435 198.93H238.545V174.73H248.115V214H236.895L230.075 189.745H229.965V214H220.395V174.73ZM252.943 174.73H267.793C270.763 174.73 273.073 175.28 274.723 176.38C276.373 177.443 277.602 178.892 278.408 180.725C279.252 182.522 279.765 184.612 279.948 186.995C280.132 189.342 280.223 191.798 280.223 194.365C280.223 196.932 280.132 199.407 279.948 201.79C279.765 204.137 279.252 206.227 278.408 208.06C277.602 209.857 276.373 211.305 274.723 212.405C273.073 213.468 270.763 214 267.793 214H252.943V174.73ZM263.173 206.63H265.208C266.198 206.63 266.987 206.502 267.573 206.245C268.16 205.952 268.6 205.365 268.893 204.485C269.223 203.605 269.425 202.358 269.498 200.745C269.608 199.132 269.663 197.005 269.663 194.365C269.663 191.725 269.608 189.598 269.498 187.985C269.425 186.372 269.223 185.125 268.893 184.245C268.6 183.365 268.16 182.797 267.573 182.54C266.987 182.247 266.198 182.1 265.208 182.1H263.173V206.63ZM299.815 186.06V185.125C299.815 183.952 299.577 182.962 299.1 182.155C298.624 181.312 297.89 180.89 296.9 180.89C295.8 180.89 294.994 181.257 294.48 181.99C293.967 182.687 293.71 183.475 293.71 184.355C293.71 185.638 294.114 186.665 294.92 187.435C295.764 188.168 296.809 188.81 298.055 189.36C299.302 189.91 300.64 190.478 302.07 191.065C303.5 191.615 304.839 192.348 306.085 193.265C307.332 194.182 308.359 195.392 309.165 196.895C310.009 198.362 310.43 200.287 310.43 202.67C310.43 206.85 309.239 209.893 306.855 211.8C304.472 213.67 301.025 214.605 296.515 214.605C294.389 214.605 292.5 214.422 290.85 214.055C289.237 213.725 287.862 213.138 286.725 212.295C285.625 211.415 284.782 210.278 284.195 208.885C283.609 207.492 283.315 205.768 283.315 203.715V202.34H293.215V203.275C293.215 204.962 293.527 206.153 294.15 206.85C294.774 207.51 295.58 207.84 296.57 207.84C297.634 207.84 298.44 207.473 298.99 206.74C299.577 206.007 299.87 205.108 299.87 204.045C299.87 202.762 299.467 201.753 298.66 201.02C297.89 200.25 296.9 199.608 295.69 199.095C294.517 198.545 293.234 197.995 291.84 197.445C290.447 196.895 289.145 196.18 287.935 195.3C286.762 194.42 285.772 193.265 284.965 191.835C284.195 190.405 283.81 188.535 283.81 186.225C283.81 182.228 284.874 179.185 287 177.095C289.127 175.005 292.354 173.96 296.68 173.96C301.154 173.96 304.38 174.932 306.36 176.875C308.377 178.782 309.385 181.843 309.385 186.06H299.815ZM328.354 174.73H343.204C346.174 174.73 348.484 175.28 350.134 176.38C351.784 177.443 353.012 178.892 353.819 180.725C354.662 182.522 355.175 184.612 355.359 186.995C355.542 189.342 355.634 191.798 355.634 194.365C355.634 196.932 355.542 199.407 355.359 201.79C355.175 204.137 354.662 206.227 353.819 208.06C353.012 209.857 351.784 211.305 350.134 212.405C348.484 213.468 346.174 214 343.204 214H328.354V174.73ZM338.584 206.63H340.619C341.609 206.63 342.397 206.502 342.984 206.245C343.57 205.952 344.01 205.365 344.304 204.485C344.634 203.605 344.835 202.358 344.909 200.745C345.019 199.132 345.074 197.005 345.074 194.365C345.074 191.725 345.019 189.598 344.909 187.985C344.835 186.372 344.634 185.125 344.304 184.245C344.01 183.365 343.57 182.797 342.984 182.54C342.397 182.247 341.609 182.1 340.619 182.1H338.584V206.63ZM359.936 174.73H383.201V183.09H370.166V189.8H382.376V197.83H370.166V205.64H383.696V214H359.936V174.73ZM51.42 232.73H61.65V263.64H74.245V272H51.42V232.73ZM89.694 240.76L86.889 257.425H92.609L89.804 240.76H89.694ZM96.184 232.73L105.754 272H94.864L93.819 265.125H85.679L84.634 272H73.909L83.314 232.73H96.184ZM124.857 241.42H117.267V232.73H142.787V241.42H135.087V272H124.857V241.42ZM145.092 232.73H168.357V241.09H155.322V247.8H167.532V255.83H155.322V263.64H168.852V272H145.092V232.73ZM172.592 232.73H184.032L190.632 256.93H190.742V232.73H200.312V272H189.092L182.272 247.745H182.162V272H172.592V232.73ZM205.141 232.73H219.991C222.961 232.73 225.271 233.28 226.921 234.38C228.571 235.443 229.799 236.892 230.606 238.725C231.449 240.522 231.962 242.612 232.146 244.995C232.329 247.342 232.421 249.798 232.421 252.365C232.421 254.932 232.329 257.407 232.146 259.79C231.962 262.137 231.449 264.227 230.606 266.06C229.799 267.857 228.571 269.305 226.921 270.405C225.271 271.468 222.961 272 219.991 272H205.141V232.73ZM215.371 264.63H217.406C218.396 264.63 219.184 264.502 219.771 264.245C220.357 263.952 220.797 263.365 221.091 262.485C221.421 261.605 221.622 260.358 221.696 258.745C221.806 257.132 221.861 255.005 221.861 252.365C221.861 249.725 221.806 247.598 221.696 245.985C221.622 244.372 221.421 243.125 221.091 242.245C220.797 241.365 220.357 240.797 219.771 240.54C219.184 240.247 218.396 240.1 217.406 240.1H215.371V264.63ZM246.953 249.34H248.988C250.454 249.34 251.536 248.918 252.233 248.075C252.929 247.195 253.278 246.058 253.278 244.665C253.278 243.015 252.929 241.842 252.233 241.145C251.573 240.448 250.473 240.1 248.933 240.1H246.953V249.34ZM236.723 232.73H252.728C254.671 232.73 256.321 232.987 257.678 233.5C259.071 234.013 260.189 234.747 261.033 235.7C261.913 236.617 262.536 237.717 262.903 239C263.306 240.283 263.508 241.677 263.508 243.18C263.508 245.82 262.976 247.947 261.913 249.56C260.849 251.173 259.144 252.163 256.798 252.53V252.64C259.254 252.86 260.941 253.722 261.858 255.225C262.774 256.728 263.233 258.8 263.233 261.44V264.795C263.233 265.308 263.233 265.84 263.233 266.39C263.233 266.94 263.251 267.472 263.288 267.985C263.324 268.462 263.379 268.902 263.453 269.305C263.526 269.708 263.618 270.02 263.728 270.24C263.874 270.46 264.021 270.68 264.168 270.9C264.314 271.083 264.553 271.267 264.883 271.45V272H253.993C253.736 271.487 253.534 270.882 253.388 270.185C253.278 269.488 253.186 268.792 253.113 268.095C253.076 267.398 253.039 266.738 253.003 266.115C253.003 265.455 253.003 264.923 253.003 264.52V261.88C253.003 260.78 252.948 259.863 252.838 259.13C252.728 258.397 252.526 257.828 252.233 257.425C251.976 256.985 251.628 256.692 251.188 256.545C250.784 256.362 250.271 256.27 249.648 256.27H246.953V272H236.723V232.73ZM268.305 232.73H291.57V241.09H278.535V247.8H290.745V255.83H278.535V263.64H292.065V272H268.305V232.73ZM311.095 244.06V243.125C311.095 241.952 310.856 240.962 310.38 240.155C309.903 239.312 309.17 238.89 308.18 238.89C307.08 238.89 306.273 239.257 305.76 239.99C305.246 240.687 304.99 241.475 304.99 242.355C304.99 243.638 305.393 244.665 306.2 245.435C307.043 246.168 308.088 246.81 309.335 247.36C310.581 247.91 311.92 248.478 313.35 249.065C314.78 249.615 316.118 250.348 317.365 251.265C318.611 252.182 319.638 253.392 320.445 254.895C321.288 256.362 321.71 258.287 321.71 260.67C321.71 264.85 320.518 267.893 318.135 269.8C315.751 271.67 312.305 272.605 307.795 272.605C305.668 272.605 303.78 272.422 302.13 272.055C300.516 271.725 299.141 271.138 298.005 270.295C296.905 269.415 296.061 268.278 295.475 266.885C294.888 265.492 294.595 263.768 294.595 261.715V260.34H304.495V261.275C304.495 262.962 304.806 264.153 305.43 264.85C306.053 265.51 306.86 265.84 307.85 265.84C308.913 265.84 309.72 265.473 310.27 264.74C310.856 264.007 311.15 263.108 311.15 262.045C311.15 260.762 310.746 259.753 309.94 259.02C309.17 258.25 308.18 257.608 306.97 257.095C305.796 256.545 304.513 255.995 303.12 255.445C301.726 254.895 300.425 254.18 299.215 253.3C298.041 252.42 297.051 251.265 296.245 249.835C295.475 248.405 295.09 246.535 295.09 244.225C295.09 240.228 296.153 237.185 298.28 235.095C300.406 233.005 303.633 231.96 307.96 231.96C312.433 231.96 315.66 232.932 317.64 234.875C319.656 236.782 320.665 239.843 320.665 244.06H311.095ZM340.636 244.06V243.125C340.636 241.952 340.397 240.962 339.921 240.155C339.444 239.312 338.711 238.89 337.721 238.89C336.621 238.89 335.814 239.257 335.301 239.99C334.787 240.687 334.531 241.475 334.531 242.355C334.531 243.638 334.934 244.665 335.741 245.435C336.584 246.168 337.629 246.81 338.876 247.36C340.122 247.91 341.461 248.478 342.891 249.065C344.321 249.615 345.659 250.348 346.906 251.265C348.152 252.182 349.179 253.392 349.986 254.895C350.829 256.362 351.251 258.287 351.251 260.67C351.251 264.85 350.059 267.893 347.676 269.8C345.292 271.67 341.846 272.605 337.336 272.605C335.209 272.605 333.321 272.422 331.671 272.055C330.057 271.725 328.682 271.138 327.546 270.295C326.446 269.415 325.602 268.278 325.016 266.885C324.429 265.492 324.136 263.768 324.136 261.715V260.34H334.036V261.275C334.036 262.962 334.347 264.153 334.971 264.85C335.594 265.51 336.401 265.84 337.391 265.84C338.454 265.84 339.261 265.473 339.811 264.74C340.397 264.007 340.691 263.108 340.691 262.045C340.691 260.762 340.287 259.753 339.481 259.02C338.711 258.25 337.721 257.608 336.511 257.095C335.337 256.545 334.054 255.995 332.661 255.445C331.267 254.895 329.966 254.18 328.756 253.3C327.582 252.42 326.592 251.265 325.786 249.835C325.016 248.405 324.631 246.535 324.631 244.225C324.631 240.228 325.694 237.185 327.821 235.095C329.947 233.005 333.174 231.96 337.501 231.96C341.974 231.96 345.201 232.932 347.181 234.875C349.197 236.782 350.206 239.843 350.206 244.06H340.636ZM354.887 232.73H378.152V241.09H365.117V247.8H377.327V255.83H365.117V263.64H378.647V272H354.887V232.73ZM396.674 232.73H419.939V241.09H406.904V247.8H419.114V255.83H406.904V263.64H420.434V272H396.674V232.73ZM429.344 241.42H421.754V232.73H447.274V241.42H439.574V272H429.344V241.42ZM51.42 290.73H66.27C69.24 290.73 71.55 291.28 73.2 292.38C74.85 293.443 76.0783 294.892 76.885 296.725C77.7283 298.522 78.2417 300.612 78.425 302.995C78.6083 305.342 78.7 307.798 78.7 310.365C78.7 312.932 78.6083 315.407 78.425 317.79C78.2417 320.137 77.7283 322.227 76.885 324.06C76.0783 325.857 74.85 327.305 73.2 328.405C71.55 329.468 69.24 330 66.27 330H51.42V290.73ZM61.65 322.63H63.685C64.675 322.63 65.4633 322.502 66.05 322.245C66.6367 321.952 67.0767 321.365 67.37 320.485C67.7 319.605 67.9017 318.358 67.975 316.745C68.085 315.132 68.14 313.005 68.14 310.365C68.14 307.725 68.085 305.598 67.975 303.985C67.9017 302.372 67.7 301.125 67.37 300.245C67.0767 299.365 66.6367 298.797 66.05 298.54C65.4633 298.247 64.675 298.1 63.685 298.1H61.65V322.63ZM83.002 290.73H106.267V299.09H93.232V305.8H105.442V313.83H93.232V321.64H106.762V330H83.002V290.73ZM124.789 290.73H135.019V321.64H147.614V330H124.789V290.73ZM163.063 298.76L160.258 315.425H165.978L163.173 298.76H163.063ZM169.553 290.73L179.123 330H168.233L167.188 323.125H159.048L158.003 330H147.278L156.683 290.73H169.553ZM190.031 290.73H200.756L204.881 320.32H204.991L209.116 290.73H220.006L211.536 330H198.336L190.031 290.73ZM221.245 290.73H231.475V330H221.245V290.73ZM245.322 310.365C245.322 313.005 245.359 315.205 245.432 316.965C245.505 318.688 245.652 320.063 245.872 321.09C246.129 322.117 246.477 322.832 246.917 323.235C247.394 323.638 248.017 323.84 248.787 323.84C249.557 323.84 250.162 323.638 250.602 323.235C251.079 322.832 251.427 322.117 251.647 321.09C251.904 320.063 252.069 318.688 252.142 316.965C252.215 315.205 252.252 313.005 252.252 310.365C252.252 307.725 252.215 305.543 252.142 303.82C252.069 302.06 251.904 300.667 251.647 299.64C251.427 298.613 251.079 297.898 250.602 297.495C250.162 297.092 249.557 296.89 248.787 296.89C248.017 296.89 247.394 297.092 246.917 297.495C246.477 297.898 246.129 298.613 245.872 299.64C245.652 300.667 245.505 302.06 245.432 303.82C245.359 305.543 245.322 307.725 245.322 310.365ZM234.762 310.365C234.762 306.698 235 303.582 235.477 301.015C235.954 298.412 236.742 296.303 237.842 294.69C238.942 293.04 240.39 291.848 242.187 291.115C243.984 290.345 246.184 289.96 248.787 289.96C251.39 289.96 253.59 290.345 255.387 291.115C257.184 291.848 258.632 293.04 259.732 294.69C260.832 296.303 261.62 298.412 262.097 301.015C262.574 303.582 262.812 306.698 262.812 310.365C262.812 314.032 262.574 317.167 262.097 319.77C261.62 322.337 260.832 324.445 259.732 326.095C258.632 327.708 257.184 328.863 255.387 329.56C253.59 330.257 251.39 330.605 248.787 330.605C246.184 330.605 243.984 330.257 242.187 329.56C240.39 328.863 238.942 327.708 237.842 326.095C236.742 324.445 235.954 322.337 235.477 319.77C235 317.167 234.762 314.032 234.762 310.365ZM266.479 290.73H276.709V321.64H289.304V330H266.479V290.73ZM291.938 290.73H315.203V299.09H302.168V305.8H314.378V313.83H302.168V321.64H315.698V330H291.938V290.73ZM319.438 290.73H330.878L337.478 314.93H337.588V290.73H347.158V330H335.938L329.118 305.745H329.008V330H319.438V290.73ZM367.661 302.665C367.661 300.428 367.441 298.907 367.001 298.1C366.561 297.293 365.846 296.89 364.856 296.89C364.086 296.89 363.463 297.092 362.986 297.495C362.546 297.898 362.198 298.613 361.941 299.64C361.721 300.667 361.575 302.06 361.501 303.82C361.428 305.543 361.391 307.725 361.391 310.365C361.391 313.005 361.428 315.205 361.501 316.965C361.575 318.688 361.721 320.063 361.941 321.09C362.198 322.117 362.546 322.832 362.986 323.235C363.463 323.638 364.086 323.84 364.856 323.84C365.48 323.84 365.993 323.693 366.396 323.4C366.8 323.07 367.111 322.538 367.331 321.805C367.551 321.072 367.698 320.1 367.771 318.89C367.881 317.643 367.936 316.085 367.936 314.215H377.836V317.13C377.836 319.88 377.47 322.135 376.736 323.895C376.003 325.655 375.031 327.048 373.821 328.075C372.611 329.065 371.218 329.725 369.641 330.055C368.101 330.422 366.506 330.605 364.856 330.605C361.996 330.605 359.65 330.257 357.816 329.56C355.983 328.863 354.553 327.708 353.526 326.095C352.5 324.445 351.785 322.337 351.381 319.77C351.015 317.167 350.831 314.032 350.831 310.365C350.831 306.625 351.051 303.453 351.491 300.85C351.968 298.247 352.756 296.138 353.856 294.525C354.956 292.912 356.405 291.757 358.201 291.06C359.998 290.327 362.216 289.96 364.856 289.96C367.166 289.96 369.128 290.253 370.741 290.84C372.355 291.427 373.656 292.27 374.646 293.37C375.673 294.433 376.406 295.735 376.846 297.275C377.323 298.778 377.561 300.483 377.561 302.39V304.865H367.661V302.665ZM381.527 290.73H404.792V299.09H391.757V305.8H403.967V313.83H391.757V321.64H405.287V330H381.527V290.73Z" fill="white"/>
</svg>
