<svg xmlns="http://www.w3.org/2000/svg" viewBox="0 0 48 48" width="48" height="48" role="img" aria-label="Ampoule">
  <!-- verre -->
  <path d="M24 6c-7.2 0-13 5.6-13 12.5 0 4.3 2.2 7.6 4.3 10 1.3 1.5 2 2.5 2.2 3.8h13c.2-1.3.9-2.3 2.2-3.8 2.1-2.4 4.3-5.7 4.3-10C37 11.6 31.2 6 24 6Z" fill="#fff"/>
  <!-- culot -->
  <rect x="17.5" y="34.6" width="13" height="3.2" rx="1.6" fill="#fff"/>
  <rect x="17.5" y="39.4" width="13" height="3.2" rx="1.6" fill="#fff"/>
  <!-- filament, en negatif dans le verre -->
  <path d="M21 27.5c0-2.4 1-3.6 1.5-5.4.5-1.9-.4-3.3-1.6-4" stroke="#1c1a1a" stroke-width="1.7" fill="none" stroke-linecap="round"/>
  <path d="M27 27.5c0-2.4-1-3.6-1.5-5.4-.5-1.9.4-3.3 1.6-4" stroke="#1c1a1a" stroke-width="1.7" fill="none" stroke-linecap="round"/>
</svg>
